<svg width="254" height="60" viewBox="0 0 254 60" fill="none" xmlns="http://www.w3.org/2000/svg">
<g clip-path="url(#clip0_14_5)">
<path fill-rule="evenodd" clip-rule="evenodd" d="M35.5312 28.3435C37.2311 28.1466 38.1915 28.0034 38.4124 27.9257C38.5672 27.8661 38.7049 27.6932 38.8357 27.4007V27.2102C38.8357 26.9177 38.8834 25.8677 38.973 24.0486C38.997 23.5356 39.0086 23.0402 39.0086 22.5512L38.955 20.4692L38.991 18.1131L38.973 13.7346L38.991 10.597C39.0026 9.26649 38.9014 8.46099 38.6865 8.16924C38.4716 7.87674 37.9174 7.66786 37.0162 7.54861C36.1219 7.42336 35.6265 7.33411 35.5312 7.28011C35.4412 7.22011 35.394 7.12524 35.394 6.99999C35.394 6.91636 35.4116 6.80874 35.4476 6.68386C35.5609 6.57624 35.8294 6.51661 36.2527 6.51061C36.3064 6.51061 36.4676 6.49261 36.7301 6.46299C36.9926 6.43336 37.2431 6.42136 37.4756 6.42136H38.907L43.5127 6.36774C46.1077 6.36774 47.9329 6.55824 48.9765 6.94599C50.0205 7.32811 50.8496 7.97799 51.4702 8.89074C52.0845 9.80349 52.3946 10.8235 52.3946 11.9507C52.3946 14.0924 51.2734 15.727 49.0365 16.8542C48.6547 17.0571 48.3562 17.2304 48.1354 17.3792C48.5291 18.2144 49.0781 19.2167 49.782 20.3856L51.9892 24.1799C52.872 25.5756 53.4802 26.4464 53.8204 26.7985C54.1541 27.1562 54.5662 27.4487 55.0432 27.6812C55.5266 27.9137 56.3377 28.1346 57.477 28.3435C57.489 28.4567 57.495 28.5524 57.495 28.6176C57.495 28.6896 57.489 28.7789 57.477 28.8801C55.8844 28.9041 54.0172 28.9161 51.8756 28.9161C51.7267 28.9161 51.5175 28.9041 51.2494 28.8801C50.4262 27.2995 49.4539 25.5636 48.3322 23.6725L45.75 18.9722C45.4039 18.4829 45.1114 18.1787 44.8849 18.0595C44.658 17.9342 44.3539 17.8746 43.9781 17.8746L42.4867 17.8922L41.9977 17.8746C41.9617 18.25 41.9437 19.0079 41.9437 20.1651V26.1362C41.9321 26.3571 41.9797 26.6672 42.0814 27.067C42.1766 27.2875 42.3319 27.4607 42.5584 27.598C42.7792 27.7292 43.4231 27.9317 44.4971 28.2002L45.201 28.3735C45.2966 28.4864 45.3382 28.636 45.3382 28.8325C45.0281 28.8861 44.8072 28.9161 44.682 28.9161C43.638 28.9161 42.8985 28.9101 42.4691 28.8921C42.2479 28.8861 42.0694 28.8801 41.9321 28.8801L39.564 28.9161L37.2495 28.8985C37.1482 28.8985 36.6232 28.9161 35.6685 28.9521L35.3224 28.8801L35.2867 28.7076C35.2867 28.606 35.37 28.4807 35.5312 28.3435ZM41.9794 16.9082C42.2959 16.9202 42.5344 16.9259 42.6892 16.9259C43.5367 16.9259 44.5147 16.8246 45.618 16.6277C46.3995 16.4785 47.0317 16.234 47.5151 15.8879C47.9985 15.5477 48.3982 15.0407 48.726 14.3669C49.0485 13.693 49.209 13.0007 49.209 12.2792C49.209 11.4917 48.9589 10.6566 48.4515 9.77386C48.0577 9.09961 47.4015 8.53899 46.4771 8.08561C45.5527 7.63224 44.4431 7.40536 43.1486 7.40536C42.8265 7.40536 42.4147 7.42336 41.9077 7.45936C41.8601 8.06161 41.8421 8.52699 41.8421 8.84911L41.9257 12.106L41.9077 13.4421C41.9077 14.3489 41.9321 15.5065 41.9794 16.9082ZM58.2157 28.3495C58.4679 28.2501 58.7332 28.1879 59.0032 28.1646C60.7927 28.0454 61.8127 27.8361 62.0692 27.526C62.3257 27.2159 62.457 25.7129 62.457 23.0222L62.439 21.1791V19.2464L62.3674 17.1227L62.4034 15.8759L62.3854 14.5101V12.8939L62.3494 12.1716L62.3854 11.2589C62.3974 11.0504 62.4034 10.8055 62.4034 10.5254C62.4034 9.78549 62.3674 9.00399 62.2961 8.18686C62.2526 8.02228 62.1883 7.86388 62.1049 7.71549C61.6755 7.48899 60.9776 7.33974 60.0112 7.26811C59.0509 7.19049 58.5019 7.10724 58.3706 7.01161C58.2814 6.94036 58.2274 6.76149 58.2157 6.47536H59.6891L64.3297 6.61786C65.5234 6.61786 67.1096 6.57024 69.096 6.47536C69.096 6.65986 69.0847 6.83274 69.0607 6.99399C68.8279 7.05361 68.4401 7.11924 67.8911 7.19049C66.7819 7.31611 66.1076 7.44136 65.8631 7.55461C65.7079 7.61461 65.6006 7.71586 65.5294 7.85274C65.4157 8.06161 65.3441 8.45536 65.3205 9.02799L65.2305 11.2889L65.3021 19.0851V22.1695C65.2836 22.8294 65.2717 23.4894 65.2665 24.1495C65.2665 25.4564 65.3021 26.2911 65.3621 26.6552C65.4277 27.019 65.541 27.2755 65.7022 27.4367C65.8635 27.592 66.1256 27.7172 66.4897 27.8125C67.032 27.9377 67.4617 28.0094 67.7662 28.0214C68.4281 28.0454 68.8455 28.1406 69.0247 28.3015C69.0607 28.4507 69.0784 28.582 69.0784 28.6896V28.8269C68.0107 28.8625 67.2232 28.8801 66.7159 28.8801C66.4237 28.8801 65.9047 28.8625 65.1532 28.8325L62.7255 28.8625L58.5855 28.8445H58.2517L58.2157 28.3495ZM94.0117 7.65024L94.2086 10.2985C94.2802 11.098 94.3162 11.6466 94.3162 11.9335L93.8149 12.0227C93.0337 10.2565 92.0674 8.93274 90.9041 8.04961C89.7465 7.16686 88.3271 6.72586 86.6509 6.72586C84.5989 6.72586 82.9999 6.97599 81.8606 7.47699C80.2084 8.18686 78.7886 9.42774 77.6134 11.1876C76.4381 12.9471 75.8479 15.0707 75.8479 17.5525C75.8479 18.9899 76.0624 20.2787 76.4921 21.418C76.9275 22.5632 77.5357 23.6249 78.3172 24.6092C79.1114 25.6018 80.053 26.4668 81.1091 27.1742C81.8066 27.6512 82.6421 28.0154 83.6085 28.2599C84.1515 28.3851 84.9686 28.4507 86.0542 28.4507C86.7521 28.4507 87.528 28.3495 88.3747 28.1522C89.2279 27.9557 89.8661 27.6872 90.3015 27.3591C90.7309 27.0254 91.0234 26.6492 91.1786 26.2259C91.3395 25.8081 91.4171 24.991 91.4171 23.7737C91.4171 21.7577 91.2859 20.5825 91.017 20.2487C90.7489 19.9146 89.9017 19.6937 88.476 19.5925L87.7785 19.5389L87.3071 19.5565C87.2351 19.5449 87.1459 19.5265 87.0266 19.5029L86.7641 19.0791C86.7641 19.0199 86.8054 18.9479 86.8894 18.8526C87.492 18.7634 88.8101 18.7157 90.8445 18.7157C91.2975 18.7157 92.0374 18.7274 93.0634 18.7514L94.8649 18.8226L96.4935 18.805C96.8096 18.805 97.1854 18.817 97.6327 18.835C97.7104 18.8466 97.764 18.8706 97.788 18.9006C97.8116 18.9242 97.8236 18.9779 97.8236 19.0435C97.8236 19.1687 97.7936 19.33 97.734 19.5269C97.245 19.6281 96.8632 19.6817 96.5947 19.6817L95.4555 19.6641C95.0737 19.6641 94.7636 19.8014 94.5247 20.0639C94.4115 20.1951 94.3519 20.6301 94.3519 21.3764L94.3695 23.6665C94.3695 25.2355 94.3042 26.2379 94.179 26.6732C94.1074 26.9297 93.9641 27.1566 93.7376 27.3591C93.5167 27.568 93.0514 27.8065 92.3419 28.087C91.3275 28.4924 90.4091 28.7669 89.5856 28.9101C88.0466 29.1786 86.5612 29.3099 85.1295 29.3099C82.821 29.3099 80.9299 29.0174 79.4565 28.4271C77.9835 27.8361 76.7186 27.0194 75.651 25.9694C74.583 24.9194 73.8255 23.8637 73.3721 22.7897C72.6859 21.2147 72.3401 19.6161 72.3401 17.9822C72.3401 15.9419 72.8771 13.9495 73.9567 11.9927C75.0367 10.042 76.7722 8.45536 79.1764 7.23249C80.8646 6.36774 83.1611 5.93799 86.0602 5.93799C88.0646 5.93799 89.7052 6.11086 90.9817 6.46299C92.2579 6.80911 93.2662 7.20886 94.0117 7.65024ZM99.6004 28.3495C99.8526 28.2502 100.118 28.1879 100.388 28.1646C102.177 28.0454 103.197 27.8361 103.453 27.526C103.71 27.2159 103.842 25.7129 103.842 23.0222L103.824 21.1791V19.2464L103.752 17.1227L103.788 15.8759L103.77 14.5101V12.8939L103.734 12.1716L103.77 11.2589C103.782 11.0504 103.788 10.8055 103.788 10.5254C103.788 9.78549 103.752 9.00399 103.68 8.18686C103.637 8.02229 103.573 7.8639 103.489 7.71549C103.06 7.48899 102.362 7.33974 101.396 7.26811C100.436 7.19049 99.8865 7.10724 99.7552 7.01161C99.6656 6.94036 99.612 6.76149 99.6004 6.47536H101.074L105.715 6.61786C106.907 6.61786 108.494 6.57024 110.481 6.47536C110.481 6.65986 110.469 6.83274 110.445 6.99399C110.212 7.05361 109.825 7.11924 109.276 7.19049C108.166 7.31611 107.492 7.44136 107.248 7.55461C107.092 7.61461 106.985 7.71586 106.914 7.85274C106.8 8.06161 106.729 8.45536 106.705 9.02799L106.616 11.2889L106.687 19.0851V22.1695C106.668 22.8293 106.656 23.4894 106.651 24.1495C106.651 25.4564 106.687 26.2911 106.746 26.6552C106.812 27.019 106.925 27.2755 107.086 27.4367C107.248 27.592 107.51 27.7172 107.874 27.8125C108.417 27.9377 108.846 28.0094 109.15 28.0214C109.813 28.0454 110.23 28.1406 110.409 28.3015C110.445 28.4507 110.463 28.582 110.463 28.6896V28.8269C109.395 28.8625 108.608 28.8801 108.1 28.8801C107.808 28.8801 107.289 28.8625 106.538 28.8325L104.11 28.8625L99.9697 28.8445H99.636L99.6004 28.3495ZM112.543 7.44136L112.525 6.61786C114.327 6.61786 115.646 6.57661 116.487 6.48661C116.809 6.45699 117.035 6.43899 117.166 6.43899C117.268 6.43899 117.429 6.45099 117.638 6.47499C118.135 6.89586 118.589 7.36545 118.992 7.87674C119.087 7.97799 119.195 8.09724 119.308 8.22286L122.983 12.2969L123.508 12.9295C124.247 13.8002 124.927 14.5521 125.536 15.1664C126.144 15.7866 127.332 17.0751 129.098 19.0315L133.261 23.6665C133.775 24.2397 134.296 24.8066 134.824 25.3671L134.842 25.0862C134.77 23.458 134.734 22.5989 134.734 22.5092L134.806 21.4596L134.77 19.8074V19.0555C134.77 18.5781 134.734 17.0991 134.669 14.6234C134.656 14.2836 134.62 13.645 134.549 12.7026C134.484 11.7659 134.448 10.9371 134.448 10.2269C134.448 8.93836 134.37 8.19286 134.215 7.98436C134.108 7.82911 133.607 7.67386 132.701 7.51299C132.492 7.50099 132.158 7.46536 131.703 7.40536C131.173 7.38174 130.857 7.35174 130.761 7.32174C130.666 7.28611 130.57 7.18486 130.475 7.02361C130.499 6.83874 130.553 6.66549 130.637 6.50499C130.939 6.41654 131.252 6.37035 131.566 6.36774C131.9 6.36774 132.306 6.40899 132.795 6.49261C133.285 6.57624 133.726 6.61786 134.114 6.61786C134.65 6.61786 135.492 6.58824 136.637 6.53461C137.281 6.49261 137.728 6.47499 137.979 6.47499H138.277L138.242 7.01161C138.057 7.09524 137.794 7.14286 137.466 7.16086C137.145 7.17886 136.834 7.22649 136.554 7.31011C136.136 7.43536 135.88 7.54861 135.802 7.63824C135.522 7.94236 135.378 8.25249 135.378 8.56861L135.575 14.0924L135.718 16.6274L135.701 17.3616L135.808 20.875C135.88 23.2731 135.915 25.3607 135.915 27.1326C135.915 27.5204 135.891 28.3495 135.844 29.632L134.925 29.7032C134.52 29.2382 133.118 27.7649 130.731 25.2895C130.17 24.7165 129.795 24.3167 129.598 24.0846L128.101 22.3484C127.522 21.7041 127.146 21.2984 126.967 21.1195C126.795 20.9466 126.669 20.8154 126.586 20.7377C125.321 19.2884 123.681 17.4809 121.664 15.3036C121.116 14.725 120.316 13.8122 119.26 12.5714C118.598 11.7899 118.181 11.3125 118.008 11.14C117.835 10.9611 117.596 10.7639 117.292 10.543L117.244 11.14C117.244 13.4125 117.298 16.5501 117.411 20.5529L117.537 26.3511C117.542 26.8401 117.572 27.3111 117.62 27.7649L118.234 27.9077C119.338 28.009 120.424 28.1702 121.497 28.3791C121.581 28.4504 121.647 28.4984 121.706 28.5344L121.688 29.1906C121.503 29.2439 121.354 29.2739 121.235 29.2739C121.11 29.2739 120.954 29.2622 120.77 29.2439C119.624 29.1666 118.229 29.131 116.582 29.131C115.425 29.131 114.405 29.161 113.522 29.2202L113.283 29.2382C113.176 29.2382 113.027 29.2262 112.83 29.2026L112.812 28.6896L113.265 28.4864L114.088 28.3611C114.822 28.2599 115.353 28.1406 115.693 28.0154C115.902 27.9386 116.088 27.8116 116.236 27.6456C116.361 26.8341 116.427 25.6532 116.427 24.0962C116.427 23.3744 116.409 22.0442 116.373 20.1115V17.7254L116.337 12.7442C116.314 10.5194 116.242 9.20724 116.11 8.80711C116.039 8.59861 115.896 8.41336 115.675 8.24649C115.228 7.93036 114.649 7.73349 113.934 7.65024C113.217 7.57261 112.752 7.50099 112.543 7.44136Z" fill="white"/>
<path fill-rule="evenodd" clip-rule="evenodd" d="M175.903 28.3075C176.077 28.2122 176.232 28.1642 176.374 28.1642H176.806C176.896 28.1642 177.044 28.1586 177.264 28.1466C178.23 28.063 178.804 27.9854 178.977 27.9021C179.416 27.6812 179.796 27.2995 180.112 26.7509C180.763 25.5636 181.498 23.8754 182.31 21.6981C182.703 20.6661 182.949 20.0339 183.045 19.813C183.372 19.0903 183.673 18.3561 183.947 17.6117L185.72 13.0187C185.997 12.2969 186.661 10.6446 187.711 8.05562C187.976 7.40537 188.298 6.52862 188.672 5.43699L189.265 5.40137L189.923 5.41899C190.484 6.45014 190.964 7.52308 191.36 8.62824C191.586 9.23687 191.959 10.1432 192.475 11.3425L195.343 18.5545L196.877 22.4616C197.683 24.6805 198.211 26.0466 198.463 26.554C198.714 27.067 198.947 27.4007 199.159 27.562C199.224 27.6096 199.455 27.6812 199.867 27.7769C200.274 27.8661 200.564 27.9377 200.725 27.9854C201.305 28.1346 201.705 28.2539 201.931 28.3555C201.982 28.4807 202.008 28.576 202.008 28.648C202.008 28.7012 201.988 28.7849 201.95 28.8985C201.666 28.908 201.382 28.9139 201.099 28.9161C200.461 28.9161 199.326 28.9041 197.709 28.8801L195.82 28.8501L193.538 28.8685C193.383 28.8685 193.229 28.8685 193.074 28.8565C192.913 28.8505 192.778 28.8445 192.668 28.8445H192.255C192.123 28.8347 191.994 28.7982 191.875 28.7372C191.875 28.5704 191.908 28.4091 191.965 28.2539C192.114 28.1826 192.256 28.1406 192.378 28.1286L194.325 28.0034C194.828 27.9797 195.214 27.9201 195.479 27.8129C195.556 27.598 195.595 27.4427 195.595 27.3355C195.595 27.1266 195.427 26.578 195.098 25.6949C194.886 25.1413 194.688 24.5824 194.505 24.0186C194.338 23.4936 193.668 21.7517 192.501 18.805C191.985 18.7214 191.534 18.6797 191.141 18.6797L187.119 18.7157L185.932 18.6974C185.507 18.6974 185.037 18.7274 184.521 18.7874C184.353 19.1391 184.25 19.3896 184.199 19.5389L182.549 24.3707C181.846 26.2139 181.492 27.2219 181.492 27.4131C181.492 27.5204 181.55 27.6932 181.659 27.9377C181.923 28.009 182.278 28.075 182.716 28.1346L185.288 28.3435C185.423 28.4507 185.494 28.5464 185.494 28.6296C185.494 28.6896 185.475 28.7789 185.437 28.8985C185.003 28.9086 184.569 28.9145 184.134 28.9161C183.129 28.9161 181.956 28.8685 180.622 28.7732C180.003 28.7492 179.565 28.7372 179.301 28.7372C179.036 28.7372 178.578 28.7492 177.921 28.7732C177.614 28.7926 177.307 28.8043 176.999 28.8085C176.608 28.8048 176.216 28.7869 175.826 28.7549V28.6476C175.826 28.564 175.851 28.4507 175.903 28.3075ZM184.895 17.8266C186.236 17.8922 187.77 17.9279 189.484 17.9279C190.464 17.9279 191.321 17.8982 192.062 17.8446C191.946 17.4162 191.802 16.9958 191.631 16.5861C190.812 14.5874 190.361 13.4841 190.271 13.2752L188.556 9.29649L188.369 8.98599C188.292 9.12362 188.015 9.71387 187.537 10.7579C186.738 12.5534 186.165 13.9491 185.817 14.9455C185.649 15.3929 185.481 15.8402 185.308 16.2816C185.133 16.723 185.023 17.0331 184.979 17.2124C184.931 17.3998 184.864 17.5818 184.779 17.7554L184.895 17.8266ZM199.126 7.19049C199.364 7.28612 199.731 7.38174 200.234 7.47099C200.737 7.56662 201.098 7.78149 201.324 8.12124C201.904 9.40374 202.258 10.2269 202.381 10.591C202.458 10.8235 202.535 11.0504 202.625 11.2712C202.741 11.575 202.871 11.8975 203.025 12.2372L205.249 17.4509L207.775 22.951L210.831 29.8825L211.778 29.8465C212.152 29.3931 212.629 28.576 213.222 27.3947L214.672 24.6272C215.561 22.7597 216.322 21.2627 216.954 20.1291L217.173 19.7834C218.327 21.7994 219.628 24.3407 221.073 27.3947C221.633 28.6 221.994 29.4171 222.155 29.8465C222.31 29.8585 222.432 29.8649 222.516 29.8649C222.606 29.8649 222.755 29.8465 222.942 29.8109L223.754 27.8245L225.804 22.5989C226.75 20.397 227.666 18.1818 228.549 15.9539L228.756 15.4525L229.058 14.7546C229.22 14.3909 229.329 14.1464 229.381 14.0031C229.555 13.5017 229.728 13.102 229.89 12.8042C230.65 10.7819 231.044 9.73787 231.082 9.66624C231.411 8.94474 231.631 8.50299 231.753 8.34249C231.875 8.18124 232.043 8.02599 232.262 7.88874C232.481 7.75149 233.049 7.51899 233.951 7.19049C233.977 7.02362 233.99 6.89837 233.99 6.81474L233.97 6.63587L233.402 6.60024H231.991L230.347 6.61787L228.897 6.58262C228.762 6.58262 228.427 6.59424 227.898 6.61787L227.879 6.73749C227.879 6.82074 227.898 6.92837 227.937 7.07124C228.034 7.13724 228.137 7.19049 228.24 7.22649C229.304 7.45899 229.929 7.64424 230.103 7.77549C230.283 7.91274 230.367 8.05562 230.367 8.22287C230.367 8.27649 230.347 8.37174 230.315 8.49699L230.257 8.77749C230.108 9.42675 229.925 10.0679 229.71 10.6982L227.511 16.4545L226.061 19.837C225.672 20.7401 225.268 21.637 224.849 22.5272L223.696 25.3011L223.657 25.3844L223.373 26.2259C223.083 25.4984 222.722 24.7109 222.284 23.8577C221.852 23.0102 221.588 22.4916 221.504 22.3007L219.558 18.1191C219.32 17.6294 219.086 17.1381 218.855 16.6454L219.635 14.9811C219.874 14.5397 220.035 14.182 220.125 13.9135C220.337 13.4781 220.609 12.8335 220.937 11.9691L222.316 9.12362C222.568 8.71787 222.845 8.40174 223.161 8.18087C223.638 7.86512 224.347 7.62587 225.295 7.47699C225.675 7.41737 225.913 7.35174 226.016 7.26812C226.066 7.23538 226.108 7.19026 226.136 7.13702C226.164 7.08379 226.178 7.02423 226.177 6.96399C226.177 6.88037 226.126 6.79712 226.023 6.70149C225.822 6.65987 225.675 6.63024 225.571 6.61787L224.25 6.63587L223.451 6.61787H222.169C220.602 6.57024 219.725 6.55824 219.538 6.58262C219.435 6.59424 219.319 6.64187 219.197 6.73749C219.133 6.86274 219.1 6.95799 219.1 7.02362L219.119 7.16087L219.461 7.29812L219.854 7.35174C220.428 7.39937 220.789 7.48899 220.956 7.62587C221.169 7.82912 221.279 8.04962 221.279 8.29449C221.279 8.74787 221.059 9.44574 220.634 10.4001C219.628 12.7026 218.836 14.3909 218.249 15.4589L216.322 11.4914C215.355 9.41012 214.866 8.25887 214.866 8.03762C214.866 7.92437 214.93 7.83512 215.046 7.76387C215.168 7.69787 215.6 7.62024 216.354 7.54262C216.87 7.49499 217.237 7.43537 217.437 7.36974C217.488 7.25649 217.515 7.14887 217.515 7.05962C217.515 6.95837 217.469 6.86274 217.379 6.77912C217.295 6.69549 217.16 6.65387 216.985 6.65387L216.683 6.65987C216.458 6.65387 216.283 6.65387 216.173 6.65387L214.395 6.68949H213.408L212.481 6.70749H211.443L210.837 6.72549L209.644 6.68949C209.477 6.68949 209.194 6.69549 208.787 6.70749C208.704 6.76749 208.645 6.84474 208.619 6.95237C208.619 7.08924 208.671 7.21487 208.774 7.31612L209.174 7.40537C210.296 7.46537 210.966 7.56662 211.198 7.72187C211.423 7.87074 211.784 8.46737 212.281 9.51699C212.52 10.0184 212.855 10.6922 213.273 11.5394L216.496 18.3456L216.645 18.6974C216.432 19.312 215.897 20.4396 215.04 22.0742C213.944 24.1975 213.112 25.6889 212.545 26.536C212.462 26.3891 212.386 26.2376 212.32 26.0822C211.597 24.5672 211.14 23.5772 210.953 23.1239C210.412 21.8054 209.961 20.7794 209.606 20.0459C209.496 19.8134 209.271 19.2944 208.942 18.4889L206.1 11.9031L204.907 8.82512C204.822 8.61003 204.728 8.39905 204.623 8.19287C204.546 8.04399 204.514 7.93037 204.514 7.85912C204.514 7.80512 204.533 7.71549 204.585 7.59662C204.74 7.55462 204.855 7.52462 204.945 7.51299L206.763 7.44137C206.789 7.24449 206.802 7.08924 206.802 6.98799C206.8 6.88238 206.794 6.7769 206.782 6.67187C206.448 6.62387 205.455 6.60024 203.811 6.60024L203.36 6.61787L202.342 6.60024L200.595 6.58262C199.777 6.58262 199.28 6.68949 199.106 6.90437L199.126 7.19049Z" fill="white"/>
<path fill-rule="evenodd" clip-rule="evenodd" d="M0.789001 14.5508C0.789001 13.038 0.971251 11.6921 1.3365 10.5064C1.701 9.32813 2.30925 8.043 3.17588 6.65963C4.03463 5.28338 5.07638 4.128 6.29288 3.20063C7.509 2.27288 9.19688 1.452 11.3558 0.73725C12.8689 0.243 14.7848 0 17.103 0C18.6615 0 20.1893 0.205125 21.6874 0.62325C23.1773 1.04175 24.5306 1.61925 25.7543 2.36438C26.9708 3.10163 28.1872 4.24988 29.4034 5.793C30.2546 6.86475 30.8936 8.013 31.3271 9.24413C31.888 10.8574 32.1732 12.5536 32.1709 14.2616C32.1709 16.2229 31.9807 17.85 31.6009 19.1423C31.2202 20.4349 30.5895 21.7118 29.7 22.974C29.0002 23.9543 27.7995 25.0871 26.1116 26.364C24.9791 27.2235 23.5729 27.9229 21.8929 28.4475C20.2204 28.9718 18.4031 29.238 16.4569 29.238C14.4806 29.238 12.7166 29.01 11.1735 28.5461C9.63038 28.0901 8.33775 27.5276 7.31175 26.8661C6.2775 26.2046 5.21325 25.224 4.11863 23.9318C3.0315 22.6395 2.20313 21.2179 1.63275 19.6515C1.07025 18.0934 0.789001 16.3905 0.789001 14.5508ZM16.2593 28.4168C17.5061 28.4168 18.7984 28.242 20.1443 27.8925C21.4898 27.5426 22.683 26.9648 23.7248 26.1514C24.7586 25.3455 25.572 24.4256 26.1649 23.3918C26.7503 22.3579 27.2216 21.0353 27.5786 19.4085C27.9321 17.8134 28.1106 16.1845 28.1111 14.5508C28.1111 12.5284 27.8149 10.5293 27.2216 8.55225C26.7578 7.05488 26.0051 5.71725 24.9716 4.53075C23.9299 3.3525 22.6755 2.44013 21.2006 1.794C19.7336 1.14788 18.1676 0.82125 16.5026 0.82125C15.1493 0.82125 13.8266 1.04175 12.534 1.49025C11.2421 1.93838 10.1779 2.50088 9.34913 3.19275C8.52038 3.88463 7.74488 4.86525 7.0305 6.135C6.31575 7.40438 5.77575 8.811 5.40338 10.3388C5.031 11.8669 4.84838 13.2203 4.84838 14.3985C4.84838 15.6304 5.031 17.0291 5.40338 18.5873C5.77575 20.1458 6.285 21.4991 6.9315 22.647C7.56803 23.7759 8.37289 24.8012 9.31838 25.6875C10.2611 26.5699 11.3179 27.2464 12.4886 27.7174C13.6669 28.1813 14.9213 28.4168 16.2593 28.4168Z" fill="white"/>
<path fill-rule="evenodd" clip-rule="evenodd" d="M149.666 28.873C149.679 28.6647 149.739 28.4621 149.841 28.2801C151.004 27.9685 152.129 27.763 153.224 27.6565C153.954 27.5957 154.417 27.4364 154.622 27.1701C154.775 26.9725 154.866 26.2577 154.896 25.0262L155.049 19.15L155.026 15.1664L155.049 9.95875V8.575C155.063 5.443 155.049 3.48925 155.003 2.72125C154.988 2.56937 154.927 2.36425 154.82 2.098C154.433 1.91537 154.106 1.80175 153.848 1.741C153.581 1.67987 152.411 1.46725 150.327 1.0945C150.312 0.927246 150.305 0.805746 150.305 0.729621C150.305 0.638496 150.312 0.516621 150.327 0.364746C150.609 0.364746 151.072 0.379746 151.719 0.417996L155.117 0.546996L157.094 0.593121L157.671 0.570246C157.748 0.570246 157.968 0.585246 158.325 0.615246C159.207 0.615246 159.708 0.607746 159.845 0.592746L161.64 0.455871C162.848 0.455871 163.7 0.478746 164.193 0.524496C164.179 0.782871 164.126 1.06412 164.034 1.36825C163.875 1.39862 163.1 1.43687 161.716 1.49012C160.332 1.543 159.534 1.62662 159.329 1.7485C158.986 1.93825 158.812 2.539 158.812 3.535C158.812 3.77087 158.796 4.24975 158.766 4.9795V6.3175L158.789 10.4451V11.8517L158.834 19.2336L158.766 25.528L158.789 26.9117C158.789 27.3524 158.864 27.6261 159.009 27.733C159.382 27.748 160.477 27.763 162.278 27.7784H163.791L167.637 27.6411C168.649 27.6186 169.371 27.5121 169.797 27.3449C170.23 27.1701 170.944 26.6759 171.956 25.8396C172.563 25.3071 173.036 24.7604 173.377 24.1975C173.497 24.0127 173.624 23.8326 173.758 23.6575C174.039 23.2776 174.419 22.5025 174.89 21.3467H175.62C175.532 21.8552 175.436 22.3621 175.331 22.8674C174.898 24.9655 174.594 26.7141 174.435 28.1129C174.404 28.4091 174.374 28.6829 174.343 28.9337L166.018 28.6907C158.873 28.6907 154.631 28.7436 153.292 28.8426C152.874 28.8651 152.441 28.8726 151.977 28.8726H149.666L149.666 28.873Z" fill="white"/>
<path d="M238.76 21.3409C238.385 21.1609 237.879 21.0698 237.252 21.0698C236.899 21.0698 236.585 21.0822 236.319 21.1066L235.306 21.1677C235.027 21.1838 234.841 21.1921 234.752 21.1921C234.693 21.1921 234.584 21.1883 234.424 21.1819C234.2 21.1605 233.976 21.1475 233.752 21.1429C233.704 21.1463 233.656 21.1526 233.608 21.1621L233.588 21.1654L233.579 21.1827C233.555 21.2238 233.54 21.2702 233.538 21.3181C233.538 21.3533 233.549 21.3964 233.572 21.4452L233.582 21.4654L233.603 21.4684C234.185 21.5506 234.551 21.6559 234.692 21.7827C234.745 21.8292 234.809 21.9563 234.809 22.2964V22.3984C234.809 23.1496 234.816 23.8861 234.83 24.5881C234.865 26.1173 234.882 27.1298 234.882 27.5971C234.882 27.7602 234.881 27.8671 234.876 27.9443C234.873 28.0632 234.87 28.1431 234.87 28.1779C234.87 28.3684 234.842 28.4502 234.821 28.4824C234.81 28.4956 234.767 28.5312 234.612 28.5762L233.805 28.7318L233.815 28.9666L233.856 28.9643C234.039 28.9546 234.159 28.9478 234.196 28.9478L234.825 28.9703L235.872 28.9156C236.065 28.9156 236.334 28.9343 236.669 28.9703C236.849 28.9913 236.96 29.0011 237.008 29.0011C237.098 29.0011 237.152 28.9906 237.182 28.9673C237.217 28.9429 237.242 28.8994 237.261 28.8304L237.266 28.8136L237.257 28.7986C237.234 28.7565 237.197 28.7234 237.153 28.7048C237.132 28.6962 237.045 28.6748 236.797 28.6156C236.338 28.5113 236.091 28.4532 235.989 28.4243C235.962 28.3294 235.949 28.1941 235.949 28.0212C235.949 27.9473 235.954 27.8566 235.964 27.7437C235.974 27.6428 235.979 27.5633 235.979 27.5187L235.903 24.7868V24.4482C235.881 24.2449 235.869 23.7214 235.869 22.9343C235.869 22.7176 235.873 22.5518 235.881 22.4412L235.887 22.3174L235.868 21.6469L235.873 21.5832C235.946 21.5401 236.154 21.4932 236.709 21.4932C236.861 21.4932 237.077 21.5262 237.368 21.5941C237.648 21.6597 237.857 21.7418 237.991 21.8378C238.233 22.0099 238.424 22.2353 238.574 22.5271C238.721 22.8113 238.796 23.1094 238.796 23.4132C238.796 23.7244 238.725 24.0244 238.586 24.3038C238.45 24.5772 238.234 24.8028 237.968 24.9511C237.7 25.1001 237.4 25.1784 237.094 25.1783C236.891 25.1783 236.723 25.1547 236.596 25.1082C236.536 25.0825 236.472 25.069 236.408 25.0684L236.391 25.0718C236.356 25.0879 236.327 25.114 236.307 25.1468L236.298 25.1618L236.303 25.1791C236.322 25.2458 236.372 25.3058 236.456 25.3628C236.643 25.4877 236.803 25.5691 236.946 25.6103C237.087 25.6538 237.261 25.6752 237.477 25.6752C238.225 25.6752 238.829 25.4419 239.273 24.9822C239.715 24.5254 239.94 23.9719 239.94 23.3378C239.94 22.9579 239.837 22.5713 239.634 22.1896C239.431 21.8063 239.137 21.5209 238.76 21.3409Z" fill="white"/>
<path d="M241.435 27.6607C241.251 27.6607 241.089 27.7305 240.954 27.8681C240.888 27.9309 240.836 28.0064 240.8 28.0902C240.765 28.174 240.746 28.2641 240.747 28.3552C240.747 28.5446 240.813 28.7092 240.943 28.8438C241.075 28.9807 241.233 29.0501 241.411 29.0501C241.499 29.0508 241.586 29.0331 241.667 28.9983C241.748 28.9634 241.82 28.9121 241.88 28.8476C242.011 28.7103 242.075 28.5472 242.075 28.3488C242.075 28.1527 242.013 27.987 241.89 27.8565C241.832 27.7937 241.762 27.7438 241.683 27.71C241.605 27.6763 241.52 27.6595 241.435 27.6607Z" fill="white"/>
<path d="M250.464 27.0917C250.415 27.0629 250.38 27.0494 250.351 27.0494L250.249 27.0816L250.241 27.0974C250.123 27.3543 249.97 27.5933 249.785 27.8072C249.61 28.0082 249.426 28.1672 249.239 28.2797C249.046 28.3937 248.806 28.4912 248.527 28.5696C248.411 28.6064 248.188 28.645 247.887 28.6821L247.608 28.6877C247.158 28.6877 246.706 28.5704 246.264 28.3379C245.825 28.1069 245.473 27.7139 245.219 27.1709C244.963 26.6226 244.834 25.9195 244.834 25.0802C244.834 24.6415 244.889 24.2046 244.998 23.782C245.104 23.3605 245.252 22.9971 245.437 22.7012C245.619 22.4099 245.848 22.1515 246.115 21.937C246.394 21.7169 246.709 21.5469 247.046 21.4345C247.248 21.3681 247.494 21.3344 247.78 21.3344C248.329 21.3344 248.793 21.4581 249.162 21.703C249.531 21.9449 249.801 22.2974 249.965 22.7507L249.973 22.7725L249.996 22.7766C250.042 22.7852 250.078 22.7894 250.105 22.7894C250.135 22.7894 250.182 22.7826 250.238 22.7702L250.268 22.7631L250.269 22.7324C250.274 22.6255 250.276 22.5392 250.276 22.4759C250.276 22.1605 250.252 21.8429 250.204 21.5324L250.201 21.5174L250.19 21.5076C250.053 21.3936 249.784 21.2762 249.393 21.1589C248.984 21.0402 248.56 20.9815 248.134 20.9845C247.532 20.9845 247.056 21.0209 246.72 21.0932C246.259 21.1958 245.82 21.3838 245.428 21.6475C245.035 21.9117 244.693 22.2434 244.416 22.6274C244.131 23.0222 243.919 23.4137 243.786 23.791C243.649 24.1694 243.58 24.6216 243.58 25.1354C243.58 25.6765 243.667 26.1816 243.839 26.6376C244.012 27.0974 244.242 27.4814 244.521 27.7799C244.802 28.0801 245.135 28.3262 245.504 28.5059C245.87 28.6859 246.216 28.8212 246.532 28.9079C246.846 28.9941 247.324 29.038 247.955 29.038C248.735 29.038 249.369 28.957 249.837 28.7972C249.939 28.7624 250.014 28.7402 250.071 28.7271L250.093 28.7222L250.101 28.6997C250.176 28.4597 250.297 28.0082 250.471 27.3152C250.477 27.2531 250.482 27.1908 250.484 27.1285L250.485 27.1041L250.464 27.0917Z" fill="white"/>
<path fill-rule="evenodd" clip-rule="evenodd" d="M251.695 28.3552C251.695 28.1797 251.76 28.027 251.89 27.8969C252.019 27.766 252.169 27.7012 252.343 27.7012C252.51 27.7012 252.652 27.7623 252.768 27.8842C252.885 28.0087 252.942 28.1635 252.942 28.3492C252.942 28.5367 252.88 28.6912 252.758 28.8198C252.702 28.8804 252.634 28.9286 252.558 28.9612C252.482 28.9939 252.401 29.0102 252.318 29.0092C252.151 29.0092 252.004 28.9443 251.88 28.8157C251.82 28.7552 251.773 28.6832 251.741 28.6041C251.709 28.5251 251.693 28.4404 251.695 28.3552Z" fill="white"/>
<path fill-rule="evenodd" clip-rule="evenodd" d="M253.441 39.5918V40.3223H0.0585022V39.5918H253.441Z" fill="white"/>
<path d="M14.6257 51.6973C14.1112 51.6973 13.6684 51.7816 13.3084 51.9474C13.0534 52.0651 12.8074 52.2489 12.5779 52.4926C12.3506 52.7297 12.1747 53.011 12.0611 53.3191C11.949 53.6259 11.8924 53.9173 11.8924 54.1854C11.8924 54.6676 12.0109 55.1064 12.2445 55.4889C12.477 55.8669 12.759 56.1564 13.0826 56.3506C13.5028 56.603 13.9837 56.7364 14.4739 56.7365C15.2674 56.7365 15.9315 56.4853 16.4482 55.991C16.9676 55.496 17.2309 54.9241 17.2309 54.2908C17.2309 53.5798 16.98 52.9633 16.4854 52.4581C15.9889 51.9534 15.3634 51.6973 14.6257 51.6973ZM16.0076 55.4405C15.8479 55.7848 15.6315 56.0379 15.3637 56.1928C15.1098 56.3447 14.8197 56.4258 14.5237 56.4275C14.0554 56.4275 13.6597 56.2475 13.3477 55.8928C13.0327 55.5376 12.8737 55.004 12.8737 54.3069C12.8737 53.6848 12.9656 53.1991 13.1471 52.8643C13.3271 52.5305 13.5502 52.3018 13.8105 52.1855C14.07 52.067 14.3295 52.0074 14.5819 52.0074C14.9284 52.0074 15.2332 52.1056 15.4879 52.301C15.7432 52.4941 15.9367 52.7915 16.0616 53.1845C16.1865 53.5839 16.2499 53.9356 16.2499 54.2311C16.2499 54.6883 16.1685 55.0955 16.0076 55.4405Z" fill="white"/>
<path d="M8.87062 55.4409C8.55824 55.7098 8.28262 55.8954 8.05087 55.9921C7.82099 56.0896 7.55399 56.1391 7.25662 56.1391C6.83174 56.1391 6.45487 55.9535 6.13687 55.5871C5.81699 55.2181 5.65462 54.7153 5.65462 54.0931C5.65462 53.4883 5.81324 52.9779 6.12562 52.5778C6.34724 52.3025 6.62887 52.163 6.96224 52.163C7.10099 52.163 7.22324 52.1889 7.33649 52.2425C7.45162 52.2999 7.57987 52.4008 7.71787 52.5425C7.95937 52.7923 8.18587 52.9194 8.39099 52.9194C8.53087 52.9194 8.64749 52.8736 8.73749 52.7833C8.78169 52.7389 8.81638 52.686 8.83946 52.6278C8.86254 52.5695 8.87353 52.5072 8.87175 52.4446C8.87175 52.2586 8.78512 52.1049 8.61337 51.9868C8.32162 51.7948 7.89337 51.6973 7.34062 51.6973C6.76574 51.6973 6.28087 51.7966 5.89949 51.9924C5.51737 52.1881 5.20612 52.4904 4.97512 52.8901C4.74606 53.2765 4.6252 53.7175 4.62524 54.1666C4.62524 54.5769 4.72199 54.998 4.91287 55.4184C5.10487 55.8421 5.38349 56.1755 5.74199 56.4099C6.09787 56.6424 6.50362 56.7605 6.94837 56.7605C7.35637 56.7605 7.71487 56.6949 8.01487 56.5651C8.31862 56.4346 8.61862 56.2119 8.93249 55.8834L8.94374 55.8721L8.93624 55.3846L8.87062 55.4409Z" fill="white"/>
<path d="M23.325 51.6737C23.1825 51.6737 22.9755 51.7562 22.6901 51.9272C22.629 51.9703 22.5734 52.0208 22.5248 52.0776L22.3883 52.2119C22.1969 52.4059 22.0286 52.6213 21.8865 52.8539L21.8914 52.7744C21.8914 52.114 21.8801 51.6771 21.8573 51.4761L21.8531 51.4412L21.5981 51.4326L21.5865 51.4566C21.4538 51.7334 21.2903 51.961 21.1001 52.1335C20.9659 52.249 20.6921 52.3922 20.2871 52.5591L20.2654 52.5681L20.2343 52.7961L20.2631 52.8077C20.3468 52.8426 20.4563 52.8689 20.5886 52.8865C20.8721 52.9277 20.9595 52.9784 20.9854 53.005C21.0128 53.0331 21.0611 53.1182 21.078 53.3717C21.0941 53.5787 21.102 54.358 21.102 55.6877C21.102 56.0072 21.0821 56.0987 21.0698 56.1254C21.0579 56.1515 21.0372 56.1725 21.0113 56.1846L20.5264 56.2746L20.1638 56.3477L20.1544 56.362C20.1135 56.425 20.0936 56.4734 20.0936 56.5097L20.1285 56.6294L21.1455 56.6042L21.4643 56.581H22.0635L22.4179 56.5746L23.3366 56.5934L23.349 56.5769C23.3858 56.5304 23.4038 56.4921 23.4038 56.4599C23.4044 56.435 23.3982 56.4104 23.3857 56.3888C23.3733 56.3672 23.3551 56.3495 23.3333 56.3376C23.2575 56.2889 23.1353 56.2637 22.965 56.2619C22.9253 56.2564 22.8854 56.2526 22.8454 56.2506C22.7666 56.2341 22.5229 56.2086 22.1006 56.1722C22.0736 56.1546 22.0193 56.1182 22.0058 56.0957C21.9964 56.074 21.9776 56.0125 21.9634 55.8516L21.9514 54.6779L21.9214 53.7051C21.9214 53.5427 21.9795 53.3684 22.0999 53.1715C22.251 52.9116 22.3823 52.7372 22.4906 52.6521C22.5158 52.6319 22.5716 52.6071 22.695 52.6071C22.731 52.6071 22.821 52.6244 23.0471 52.7069C23.2369 52.7766 23.3625 52.8111 23.4315 52.8111C23.5784 52.8121 23.7199 52.7556 23.8256 52.6536C23.9123 52.57 23.9561 52.4549 23.9561 52.3127C23.9561 52.1346 23.8961 51.9827 23.7788 51.8605C23.661 51.7367 23.5088 51.6737 23.325 51.6737Z" fill="white"/>
<path d="M37.9013 51.6973C37.3875 51.6973 36.9439 51.7816 36.5839 51.9474C36.3285 52.0655 36.0825 52.2493 35.8534 52.4923C35.6261 52.7294 35.4501 53.0109 35.3366 53.3191C35.2249 53.6255 35.1679 53.9169 35.1679 54.1854C35.1679 54.6676 35.2864 55.106 35.5204 55.4889C35.7529 55.8669 36.0345 56.1564 36.3585 56.3506C36.7787 56.603 37.2596 56.7364 37.7498 56.7365C38.5429 56.7365 39.2074 56.4853 39.7241 55.991C40.2431 55.496 40.5068 54.9241 40.5068 54.2908C40.5068 53.5798 40.2555 52.9633 39.7609 52.4581C39.2648 51.9534 38.6385 51.6973 37.9013 51.6973ZM39.2831 55.4409C39.1241 55.7844 38.9074 56.0371 38.6396 56.1928C38.3856 56.3447 38.0956 56.4258 37.7996 56.4275C37.3309 56.4275 36.9356 56.2475 36.6236 55.8928C36.3086 55.5376 36.1493 55.004 36.1493 54.3069C36.1493 53.6844 36.2415 53.1991 36.423 52.8643C36.603 52.5301 36.8261 52.3018 37.086 52.1855C37.3455 52.067 37.605 52.0074 37.8574 52.0074C38.2043 52.0074 38.5088 52.1056 38.7634 52.301C39.0191 52.4941 39.2123 52.7915 39.3371 53.1845C39.462 53.5831 39.5254 53.9353 39.5254 54.2311C39.5254 54.6886 39.444 55.0959 39.2831 55.4409Z" fill="white"/>
<path d="M67.1531 55.2871L66.6795 55.6779C66.444 55.8316 66.2573 55.9318 66.1253 55.9756C65.9951 56.0169 65.8189 56.0435 65.6044 56.0551C65.1964 56.0439 64.8514 55.9486 64.5788 55.7739C64.3054 55.5961 64.0931 55.3359 63.948 55.0014C63.8003 54.6624 63.7253 54.3744 63.7253 54.146L63.7313 53.8591V53.7969L63.7253 53.7429C63.7253 53.7174 63.7331 53.6619 63.7691 53.5415C63.9446 53.5306 64.1213 53.5254 64.2941 53.5254L64.7415 53.5336L67.0943 53.5074L67.1344 53.507V53.3848C67.1344 53.1485 67.0549 52.8845 66.8974 52.601C66.7399 52.3175 66.4995 52.0824 66.1819 51.9035C65.9419 51.7648 65.6438 51.6973 65.2691 51.6973C64.9268 51.6973 64.6234 51.752 64.3673 51.8589C64.1865 51.935 63.9758 52.0689 63.7414 52.2571C63.5667 52.4011 63.4219 52.5778 63.315 52.7773C63.1474 53.081 63.0281 53.3735 62.961 53.6454C62.8969 53.9169 62.8643 54.143 62.8643 54.3166C62.8643 54.8641 62.9813 55.3359 63.2119 55.7203C63.4466 56.1084 63.7699 56.3915 64.173 56.5633C64.4372 56.677 64.7217 56.7359 65.0093 56.7365C65.3138 56.7365 65.538 56.7185 65.6768 56.6829C65.97 56.5983 66.2496 56.4722 66.507 56.3083C66.7845 56.1358 67.0065 55.9408 67.1858 55.7124L67.1925 55.7041L67.194 55.6929C67.1985 55.66 67.2005 55.6267 67.2 55.5935L67.1531 55.2871ZM63.8569 53.2224C63.8681 53.015 63.972 52.79 64.1644 52.5538C64.4299 52.2226 64.7884 52.055 65.2294 52.055C65.4405 52.055 65.6201 52.0951 65.7788 52.1784C65.9344 52.259 66.0503 52.3741 66.1238 52.5211C66.1988 52.67 66.237 52.8039 66.237 52.9186C66.237 52.9659 66.204 53.0255 66.1489 53.0851C66.1328 53.096 66.0758 53.1163 65.8808 53.1264C64.8904 53.1901 64.2881 53.2224 64.0909 53.2224H63.8565H63.8569Z" fill="white"/>
<path d="M29.916 51.7937C29.5804 51.7937 29.2508 51.8484 28.9369 51.9561C28.6344 52.0612 28.3494 52.2109 28.0913 52.4004L28.086 51.8383C28.086 51.7603 28.0879 51.5983 28.092 51.3549L28.0928 51.3272L28.0669 51.3171C28.0186 51.2945 27.9664 51.2815 27.9131 51.2788H27.909L27.8115 51.2998L27.8025 51.3126C27.6784 51.4873 27.5449 51.6257 27.4061 51.7236C27.2663 51.8214 26.9854 51.9613 26.571 52.1391L26.5515 52.1477L26.5028 52.3839L26.544 52.3907C26.8954 52.4499 27.0473 52.5216 27.1151 52.5726C27.1478 52.595 27.173 52.6268 27.1875 52.6637C27.2205 52.7462 27.2411 52.9584 27.249 53.2937L27.267 55.4383C27.2966 57.0043 27.3128 58.2246 27.3128 58.8748C27.3128 58.9431 27.3049 59.0057 27.2888 59.0661C27.2336 59.1253 27.1658 59.1748 27.0821 59.2161L26.4746 59.3383L26.469 59.3653C26.4615 59.402 26.4573 59.4393 26.4566 59.4767C26.4566 59.5161 26.4585 59.5569 26.4626 59.6046L26.466 59.6409L27.2655 59.6537H28.1426L28.671 59.6653H28.6718L29.3006 59.6526L29.2916 59.6057C29.2699 59.4894 29.2241 59.4092 29.1559 59.3668C29.0468 59.2959 28.8356 59.2494 28.5109 59.2243C28.3421 59.2101 28.2413 59.1703 28.2124 59.1081C28.1685 59.0109 28.1164 58.5827 28.1164 57.0906C28.1164 56.8614 28.1198 56.6004 28.1265 56.3136C28.134 56.3166 28.1415 56.3199 28.1494 56.3226C28.1876 56.3379 28.2285 56.3544 28.272 56.3728C28.7291 56.5667 29.1416 56.6646 29.4983 56.6646C29.9183 56.6646 30.3401 56.5644 30.7519 56.3668C31.1633 56.1737 31.5059 55.8594 31.7336 55.4661C31.9695 55.0686 32.0891 54.6122 32.0891 54.1093C32.0891 53.4328 31.8773 52.8722 31.4599 52.4424C31.0414 52.0119 30.5224 51.7937 29.916 51.7937ZM31.1801 54.5109C31.1801 55.0374 31.0144 55.4706 30.6874 55.7991C30.3608 56.1283 29.9543 56.2948 29.4799 56.2948C29.0198 56.2948 28.662 56.1973 28.416 56.0034C28.2608 55.8857 28.1554 55.6757 28.1033 55.3791C28.0759 55.2141 28.062 54.4266 28.062 53.0391C28.062 52.9967 28.065 52.9539 28.0718 52.9044C28.2289 52.7542 28.4139 52.636 28.6163 52.5564C28.829 52.4766 29.0547 52.4368 29.2819 52.4391C29.8481 52.4391 30.3116 52.6258 30.6585 52.9941C31.0046 53.3661 31.1801 53.8761 31.1801 54.5109Z" fill="white"/>
<path d="M60.0968 55.935H60.0315L60.0206 55.9433C59.8815 56.0472 59.7649 56.1117 59.6843 56.1304C59.3985 56.1923 59.205 56.2238 59.1086 56.2238C58.9133 56.2238 58.7711 56.1615 58.6736 56.0325C58.5735 55.9058 58.5229 55.641 58.5229 55.2458L58.5349 53.6929L58.5169 52.8116C58.5169 52.6973 58.53 52.5957 58.5551 52.5079L58.6335 52.4993L60.0131 52.4595H60.1474L60.1545 52.4277C60.1796 52.317 60.1916 52.2375 60.1916 52.1847C60.1916 52.1397 60.1875 52.0767 60.1793 51.9983L60.1755 51.963L60.1399 51.9619C59.84 51.9501 59.5397 51.9541 59.2403 51.9739C59.0438 51.9864 58.8472 51.9944 58.6504 51.9979C58.6346 51.9979 58.6001 51.9968 58.5476 51.9942L58.5589 51.3128L58.533 50.721L58.2885 50.7124L58.2773 50.7375C58.2473 50.8043 58.1985 50.9175 58.1385 51.0773C58.0538 51.2925 57.9881 51.4395 57.9443 51.5123C57.8543 51.6525 57.7429 51.7823 57.6131 51.8982C57.4774 52.0178 57.366 52.0947 57.2726 52.1333C57.0694 52.2169 57.0188 52.2525 56.9981 52.2732C56.9794 52.2907 56.9647 52.3121 56.9548 52.3358C56.945 52.3596 56.9403 52.3851 56.9411 52.4108C56.9411 52.4505 56.9573 52.485 56.988 52.5101C57.0259 52.5361 57.0711 52.5491 57.117 52.5473L57.6413 52.5248L57.7061 52.5289C57.7125 52.6264 57.7155 52.7239 57.7155 52.8192L57.7215 53.6907L57.6975 55.0137C57.6975 55.5642 57.7215 55.9122 57.771 56.0772C57.8198 56.2452 57.9323 56.3933 58.1066 56.5174C58.2784 56.6389 58.4993 56.7012 58.7625 56.7012C59.1263 56.7012 59.4233 56.6573 59.6453 56.5718C59.8727 56.4827 60.0765 56.3423 60.2408 56.1615L60.2494 56.1522L60.2573 56.0921C60.2578 56.0504 60.242 56.0101 60.2134 55.9797C60.198 55.9647 60.1797 55.953 60.1597 55.9453C60.1396 55.9376 60.1182 55.9341 60.0968 55.935Z" fill="white"/>
<path d="M46.6012 51.6737C46.458 51.6737 46.251 51.7562 45.966 51.9272C45.9047 51.9703 45.849 52.0208 45.8002 52.0776L45.6641 52.2119C45.4729 52.4057 45.3046 52.6209 45.1624 52.8531L45.1669 52.7744C45.1669 52.114 45.1556 51.6771 45.1327 51.4761L45.129 51.4412L44.8736 51.4326L44.862 51.4566C44.73 51.733 44.5657 51.961 44.3756 52.1335C44.2414 52.249 43.968 52.3922 43.5626 52.5591L43.5409 52.5681L43.5097 52.7961L43.5386 52.8077C43.6222 52.8426 43.7317 52.8689 43.8641 52.8865C44.148 52.9277 44.235 52.9784 44.2612 53.005C44.2886 53.0331 44.3366 53.1182 44.3539 53.3717C44.3696 53.5787 44.3779 54.358 44.3779 55.6877C44.3779 55.9915 44.3602 56.0931 44.3452 56.1257C44.3335 56.1516 44.3129 56.1725 44.2871 56.1846L43.4389 56.3477L43.4299 56.362C43.3886 56.4265 43.3699 56.4734 43.3699 56.5097L43.404 56.6294L44.4214 56.6042L44.7405 56.581H45.3394L45.6937 56.5746L46.6125 56.5934L46.6249 56.5769C46.662 56.53 46.6796 56.4917 46.6796 56.4599C46.6803 56.435 46.6741 56.4104 46.6616 56.3888C46.6492 56.3672 46.631 56.3495 46.6091 56.3376C46.533 56.2889 46.4107 56.2637 46.2405 56.2619C46.2009 56.2564 46.1611 56.2526 46.1212 56.2506C46.0425 56.2341 45.7987 56.2086 45.3761 56.1722C45.3491 56.1546 45.2947 56.1182 45.2812 56.0957C45.27 56.0695 45.2531 56.0057 45.2389 55.8516L45.2269 54.6779L45.1969 53.7051C45.1969 53.5427 45.2554 53.3684 45.3754 53.1715C45.5265 52.9116 45.6577 52.7372 45.7665 52.6521C45.7916 52.6315 45.8471 52.6071 45.9705 52.6071C46.023 52.6071 46.1411 52.6405 46.323 52.7069C46.5127 52.7766 46.6384 52.8111 46.707 52.8111C46.8539 52.8121 46.9954 52.7556 47.1011 52.6536C47.1877 52.57 47.2316 52.4549 47.2316 52.3127C47.2316 52.1346 47.172 51.9827 47.0542 51.8605C46.9369 51.7367 46.7842 51.6737 46.6012 51.6737Z" fill="white"/>
<path d="M54.2764 55.7004L54.2445 55.7086C54.1672 55.7274 54.1252 55.7416 54.1035 55.7566L54.021 55.8601C53.9227 55.9996 53.8087 56.0671 53.6722 56.0671C53.6275 56.0673 53.5832 56.0579 53.5424 56.0397C53.5015 56.0215 53.465 55.9948 53.4352 55.9614C53.3685 55.8913 53.3344 55.7956 53.3344 55.6779C53.3344 55.6239 53.3362 55.5384 53.3404 55.4281C53.3441 55.3636 53.3464 55.2856 53.3464 55.1949L53.3404 54.5116L53.3584 53.5749C53.3584 53.0379 53.3505 52.733 53.334 52.6449C53.3044 52.4532 53.2225 52.2733 53.0974 52.1251C52.9804 51.9747 52.8242 51.8596 52.6459 51.7925C52.4767 51.7288 52.227 51.6973 51.8835 51.6973C51.6334 51.6973 51.3364 51.7891 51 51.971C50.664 52.154 50.3827 52.4315 50.1641 52.7956C49.9406 53.1646 49.8322 53.3986 49.8322 53.5108C49.8322 53.5445 49.845 53.5944 49.9072 53.6398C49.9845 53.6949 50.0711 53.7234 50.1649 53.7234C50.2729 53.7234 50.4116 53.6671 50.589 53.5509L50.6025 53.5359C50.6685 53.4159 50.715 53.2996 50.7409 53.1909C50.8129 52.8271 50.9197 52.5778 51.0585 52.4506C51.2895 52.2406 51.5291 52.1394 51.7912 52.1394C52.0361 52.1394 52.2259 52.2238 52.356 52.3914C52.4895 52.5616 52.557 52.8969 52.557 53.387C52.557 53.5306 52.5536 53.6656 52.5469 53.789C52.4381 53.8423 52.1884 53.9518 51.8359 54.1003C51.2651 54.3388 50.8054 54.6515 50.4709 55.0288C50.1296 55.4165 49.9646 55.7413 49.9646 56.0218C49.9646 56.2175 50.0261 56.3818 50.148 56.5104C50.2721 56.6364 50.4405 56.7005 50.649 56.7005C50.9224 56.7005 51.1627 56.6743 51.3645 56.6225C51.4897 56.5858 51.6705 56.4999 51.9045 56.3653L52.5071 55.9464C52.5454 56.1853 52.6046 56.3506 52.6882 56.4493C52.8371 56.6319 53.0621 56.7245 53.3557 56.7245C53.526 56.7245 53.664 56.693 53.7652 56.6308C53.9205 56.5363 54.0607 56.3878 54.1822 56.1913C54.285 56.0278 54.3307 55.9258 54.3307 55.8598C54.3307 55.8286 54.3172 55.7848 54.2906 55.73L54.2764 55.7004ZM52.5514 54.5191C52.5514 54.7205 52.5375 55.0678 52.5101 55.5515C52.2637 55.7866 52.0357 55.9531 51.8134 56.0615C51.6416 56.1463 51.5014 56.1871 51.3851 56.1871C51.2374 56.1871 51.1144 56.1399 51.0191 56.0465C50.9713 56.0014 50.9337 55.9466 50.9086 55.8859C50.8835 55.8251 50.8716 55.7597 50.8736 55.694C50.8736 55.544 50.9351 55.3798 51.0562 55.2065C51.2265 54.9616 51.4605 54.7419 51.7511 54.5536C52.0256 54.3766 52.2896 54.2401 52.5367 54.1475C52.5465 54.3005 52.551 54.425 52.551 54.5195L52.5514 54.5191Z" fill="white"/>
<path d="M114.205 55.9871L114.171 55.9837C113.921 55.959 113.787 55.9474 113.734 55.9474H113.683C113.542 55.9474 113.451 55.9391 113.414 55.9234C113.408 55.9204 113.384 55.9057 113.343 55.836L113.321 55.0522L113.333 54.5779C113.337 53.6644 113.352 52.9455 113.379 52.3755L113.366 51.912L113.331 51.9082C113.289 51.904 113.247 51.9019 113.205 51.9019C113.185 51.9019 113.008 51.906 112.677 51.9142L111.746 51.9019C111.646 51.9019 111.547 51.9082 111.443 51.9206L111.416 51.9236L111.391 52.0159L111.39 52.0264C111.39 52.0612 111.405 52.1051 111.441 52.167L111.45 52.1835L111.469 52.1869C111.543 52.2004 111.648 52.2142 111.772 52.227C112.27 52.2802 112.419 52.35 112.456 52.3995C112.488 52.4415 112.542 52.6331 112.542 53.4435C112.542 53.5327 112.54 53.6366 112.536 53.7547C112.524 53.9595 112.518 54.3442 112.518 54.9315C112.518 55.0946 112.509 55.2532 112.492 55.4025C112.3 55.5744 112.083 55.7155 111.847 55.8206C111.592 55.9369 111.322 55.995 111.046 55.995C110.821 55.995 110.626 55.9455 110.467 55.8476C110.31 55.7494 110.21 55.6181 110.169 55.4572C110.125 55.2941 110.102 54.8647 110.102 54.1811C110.102 54.1399 110.108 53.9647 110.12 53.6625C110.136 53.1484 110.144 52.6106 110.144 52.0627L110.136 51.9172L110.101 51.9142C110.002 51.9064 109.764 51.9022 109.368 51.9022H109.348L109.204 51.9142L109.009 51.9019H108.533V52.1617L108.558 52.1719C108.616 52.1959 108.687 52.2139 108.768 52.2251C108.841 52.2345 108.998 52.2716 109.234 52.3357C109.283 52.377 109.307 52.4205 109.307 52.467L109.301 52.6327L109.313 52.944C109.317 52.995 109.319 53.052 109.319 53.1165C109.319 53.1664 109.317 53.2541 109.313 53.3756C109.309 53.4986 109.307 53.5789 109.307 53.613C109.307 53.6617 109.309 53.7165 109.313 53.7784C109.317 53.9216 109.319 54.0071 109.319 54.0352C109.319 54.108 109.311 54.2392 109.295 54.4264C109.291 54.5265 109.289 54.597 109.289 54.6375C109.289 55.377 109.424 55.9087 109.69 56.2185C109.956 56.5305 110.303 56.6887 110.724 56.6887C110.946 56.6887 111.177 56.6302 111.41 56.5147C111.759 56.3474 112.09 56.1427 112.395 55.9042C112.436 55.8731 112.474 55.8442 112.509 55.8195C112.511 55.8622 112.512 55.8907 112.512 55.9039V56.3824C112.512 56.4135 112.519 56.4836 112.54 56.6411L112.546 56.6854L112.589 56.676C112.702 56.6502 112.813 56.6182 112.922 56.58C113.251 56.4656 113.676 56.3524 114.182 56.2432L114.213 56.2365V56.1382C114.213 56.1131 114.211 56.0745 114.207 56.0209L114.205 55.9871Z" fill="white"/>
<path d="M98.0179 55.6779C97.7824 55.8316 97.5956 55.9314 97.4636 55.9756C97.3339 56.0169 97.1576 56.0435 96.9431 56.0551C96.5351 56.0439 96.1898 55.9486 95.9175 55.7739C95.6438 55.5961 95.4315 55.3359 95.2868 55.0014C95.1386 54.6624 95.0636 54.374 95.0636 54.146L95.07 53.8591L95.0696 53.7965L95.0636 53.7429C95.0636 53.7069 95.0786 53.639 95.1079 53.5415C95.283 53.5306 95.4596 53.5254 95.6329 53.5254L96.0799 53.5336L98.4326 53.5074L98.4728 53.507V53.3848C98.4728 53.1485 98.3933 52.8849 98.2358 52.601C98.0786 52.3175 97.8379 52.0828 97.5206 51.9035C97.2806 51.7648 96.9821 51.6973 96.6079 51.6973C96.2655 51.6973 95.9621 51.752 95.7056 51.8589C95.5245 51.935 95.3141 52.0689 95.0798 52.2571C94.9053 52.4011 94.7606 52.5778 94.6538 52.7773C94.4861 53.0806 94.3669 53.3724 94.2998 53.6454C94.2353 53.9169 94.2026 54.143 94.2026 54.3166C94.2026 54.8641 94.3196 55.3359 94.5506 55.7203C94.785 56.1084 95.1086 56.3915 95.5114 56.5633C95.7756 56.6769 96.06 56.7359 96.3476 56.7365C96.6521 56.7365 96.8764 56.7185 97.0151 56.6829C97.3083 56.5978 97.5879 56.4717 97.8458 56.3083C98.1233 56.1358 98.3445 55.9408 98.5245 55.7124L98.5309 55.7041L98.5324 55.6929C98.5369 55.6614 98.5388 55.6291 98.5388 55.5935L98.4919 55.2871L98.0179 55.6779ZM95.1953 53.2224C95.2069 53.015 95.3104 52.79 95.5028 52.5538C95.7686 52.2226 96.1268 52.055 96.5678 52.055C96.7789 52.055 96.9585 52.0951 97.1175 52.1784C97.2728 52.259 97.3886 52.3741 97.4621 52.5211C97.5371 52.67 97.5758 52.8039 97.5758 52.9186C97.5758 52.9659 97.5428 53.0251 97.4873 53.0851C97.4711 53.096 97.4145 53.1163 97.2191 53.1264C96.2288 53.1901 95.6265 53.2224 95.4296 53.2224H95.1953Z" fill="white"/>
<path d="M135.009 49.8946C135.162 49.8946 135.299 49.8365 135.415 49.7221C135.532 49.6059 135.589 49.4844 135.589 49.3513C135.589 49.22 135.53 49.0974 135.415 48.9864C135.301 48.8739 135.164 48.8169 135.009 48.8169C134.859 48.8169 134.729 48.8679 134.625 48.968C134.518 49.0678 134.464 49.1893 134.464 49.3299C134.464 49.4971 134.518 49.6336 134.622 49.7356C134.672 49.7874 134.732 49.8283 134.798 49.8557C134.865 49.883 134.937 49.8963 135.009 49.8946Z" fill="white"/>
<path d="M124.178 49.8947C124.253 49.8946 124.329 49.8794 124.398 49.8497C124.468 49.8201 124.532 49.7767 124.584 49.7222C124.701 49.6052 124.758 49.484 124.758 49.3513C124.758 49.2208 124.7 49.0978 124.584 48.9864C124.531 48.9323 124.468 48.8895 124.398 48.8604C124.328 48.8313 124.253 48.8165 124.178 48.8169C124.027 48.8169 123.898 48.8679 123.794 48.968C123.743 49.0134 123.702 49.0691 123.674 49.1316C123.646 49.194 123.632 49.2616 123.633 49.3299C123.633 49.4964 123.686 49.6337 123.791 49.7357C123.894 49.841 124.024 49.8947 124.178 49.8947Z" fill="white"/>
<path d="M90.4117 54.1351C90.2122 53.9806 89.8942 53.816 89.466 53.6454C89.046 53.4762 88.7775 53.324 88.6672 53.1931C88.5602 53.0692 88.5017 52.9106 88.5026 52.7469C88.5026 52.5279 88.5709 52.3475 88.7051 52.2114C88.8405 52.0741 89.0145 52.0077 89.2365 52.0077C89.4555 52.0077 89.6831 52.1007 89.9137 52.2845C90.1421 52.4686 90.3154 52.724 90.429 53.0427L90.4384 53.0701H90.5509C90.5961 53.0697 90.6412 53.0674 90.6862 53.0634L90.7264 53.0604L90.7114 52.8335C90.6941 52.4514 90.6682 52.1514 90.6349 51.9425L90.6322 51.923L90.615 51.9132C90.4556 51.8247 90.2614 51.758 90.0367 51.7149C89.7893 51.67 89.5382 51.6483 89.2867 51.65C89.067 51.65 88.833 51.7025 88.5709 51.809C88.3125 51.9159 88.1074 52.0756 87.9611 52.2834C87.8126 52.4934 87.7376 52.739 87.7376 53.0131C87.7376 53.3034 87.8302 53.5644 88.0129 53.7901C88.1929 54.0144 88.5446 54.2274 89.0584 54.4235C89.5609 54.6144 89.9044 54.8154 90.0802 55.0205C90.2542 55.2249 90.3427 55.4529 90.3427 55.6981C90.3427 55.8789 90.2677 56.0394 90.1222 56.1736C89.913 56.3581 89.7 56.4515 89.4885 56.4515C89.2589 56.4525 89.0336 56.3902 88.8371 56.2715C88.6391 56.1534 88.4651 55.9827 88.3196 55.7626C88.248 55.6584 88.1389 55.418 87.996 55.049L87.9859 55.0227H87.9581C87.8614 55.0227 87.8085 55.0332 87.7826 55.0565C87.7425 55.0887 87.7376 55.1435 87.7376 55.1817C87.7376 55.2774 87.7669 55.5691 87.8321 56.1264C87.8396 56.1991 87.8437 56.2576 87.8437 56.2932C87.846 56.393 87.873 56.4624 87.9319 56.5055C88.3519 56.6911 88.8165 56.7852 89.3126 56.7852C89.5279 56.7852 89.7667 56.7372 90.0431 56.6382C90.3169 56.537 90.5464 56.3645 90.7256 56.1245C90.9075 55.8834 90.9997 55.6194 90.9997 55.3396C90.9997 55.136 90.9517 54.9222 90.8565 54.7036C90.7607 54.4784 90.6073 54.2823 90.4117 54.1351Z" fill="white"/>
<path d="M105.739 55.4409C105.427 55.7101 105.151 55.8954 104.919 55.9921C104.689 56.0896 104.422 56.1391 104.125 56.1391C103.7 56.1391 103.323 55.9535 103.005 55.5871C102.685 55.2181 102.523 54.7153 102.523 54.0931C102.523 53.4883 102.682 52.9779 102.994 52.5778C103.216 52.3025 103.497 52.163 103.831 52.163C103.967 52.163 104.093 52.1893 104.205 52.2425C104.32 52.2999 104.448 52.4008 104.586 52.5425C104.828 52.7923 105.054 52.9194 105.259 52.9194C105.399 52.9194 105.516 52.8736 105.606 52.7833C105.65 52.7389 105.685 52.6859 105.708 52.6277C105.731 52.5695 105.742 52.5072 105.74 52.4446C105.74 52.2586 105.654 52.1045 105.482 51.9868C105.19 51.7948 104.762 51.6973 104.209 51.6973C103.634 51.6973 103.149 51.7966 102.768 51.9924C102.385 52.1881 102.074 52.4904 101.843 52.8901C101.614 53.2766 101.494 53.7175 101.494 54.1666C101.494 54.5773 101.59 54.9984 101.781 55.4184C101.973 55.8421 102.252 56.1759 102.61 56.4099C102.966 56.6424 103.372 56.7605 103.817 56.7605C104.225 56.7605 104.584 56.6949 104.883 56.5651C105.187 56.4346 105.487 56.2119 105.801 55.8834L105.812 55.8721L105.805 55.3846L105.739 55.4409Z" fill="white"/>
<path d="M142.936 55.6779C142.701 55.8316 142.514 55.9314 142.381 55.9756C142.252 56.0169 142.075 56.0435 141.861 56.0551C141.453 56.0439 141.108 55.9486 140.835 55.7739C140.562 55.5961 140.35 55.3359 140.204 55.0014C140.056 54.6624 139.981 54.374 139.981 54.1464L139.988 53.8591L139.988 53.7961L139.981 53.7429C139.981 53.7073 139.996 53.6394 140.025 53.5415C140.202 53.5306 140.378 53.5254 140.55 53.5254L140.998 53.5336L143.351 53.5074L143.391 53.507V53.3848C143.391 53.1489 143.311 52.8853 143.154 52.601C142.996 52.3171 142.755 52.0824 142.438 51.9035C142.198 51.7648 141.9 51.6973 141.525 51.6973C141.183 51.6973 140.88 51.752 140.624 51.8589C140.443 51.9346 140.233 52.0685 139.998 52.2571C139.823 52.4011 139.678 52.5776 139.571 52.7769C139.404 53.0803 139.285 53.372 139.217 53.6454C139.153 53.9154 139.12 54.1415 139.12 54.3166C139.12 54.8641 139.237 55.3366 139.468 55.7203C139.703 56.1084 140.026 56.3923 140.43 56.5633C140.693 56.6771 140.978 56.736 141.265 56.7365C141.57 56.7365 141.794 56.7185 141.933 56.6825C142.226 56.598 142.506 56.472 142.763 56.3083C143.04 56.1358 143.262 55.9408 143.442 55.7124L143.449 55.7038L143.451 55.6925C143.454 55.661 143.457 55.6288 143.456 55.5935L143.41 55.2871L142.936 55.6779ZM140.113 53.2224C140.125 53.015 140.228 52.7904 140.421 52.5538C140.686 52.2226 141.044 52.055 141.486 52.055C141.697 52.055 141.877 52.0951 142.035 52.1784C142.191 52.2594 142.307 52.3745 142.38 52.5211C142.455 52.6704 142.493 52.8046 142.493 52.9186C142.493 52.9655 142.459 53.0266 142.404 53.0855C142.392 53.0941 142.34 53.1155 142.137 53.1264C141.147 53.1901 140.545 53.2224 140.347 53.2224H140.113Z" fill="white"/>
<path d="M149.734 54.7036C149.639 54.4782 149.485 54.282 149.289 54.1351C149.089 53.9799 148.771 53.8153 148.344 53.6454C147.924 53.4763 147.655 53.324 147.545 53.1931C147.438 53.0693 147.379 52.9107 147.38 52.7469C147.38 52.5279 147.448 52.3479 147.583 52.2114C147.718 52.0741 147.892 52.0078 148.114 52.0078C148.333 52.0078 148.561 52.1008 148.791 52.2845C149.02 52.4694 149.194 52.7248 149.306 53.0428L149.316 53.0701H149.429C149.466 53.0701 149.51 53.0679 149.564 53.0634L149.604 53.0604L149.589 52.8335C149.572 52.454 149.546 52.154 149.513 51.9425L149.509 51.923L149.492 51.9133C149.334 51.8248 149.14 51.758 148.914 51.7149C148.667 51.6699 148.416 51.6482 148.164 51.65C147.945 51.65 147.711 51.7025 147.449 51.809C147.19 51.9159 146.985 52.0756 146.839 52.2834C146.69 52.4972 146.611 52.7525 146.615 53.0131C146.615 53.303 146.708 53.5644 146.891 53.7901C147.071 54.0144 147.422 54.227 147.936 54.4235C148.438 54.6144 148.782 54.8154 148.958 55.0205C149.132 55.2249 149.22 55.4529 149.22 55.6981C149.22 55.8781 149.146 56.039 149 56.1736C148.79 56.3581 148.577 56.4515 148.367 56.4515C148.137 56.4527 147.912 56.3904 147.715 56.2715C147.516 56.153 147.342 55.982 147.198 55.7626C147.126 55.6588 147.017 55.4184 146.874 55.049L146.864 55.0228H146.836C146.739 55.0228 146.686 55.0333 146.66 55.0565C146.63 55.0813 146.615 55.1221 146.615 55.1818C146.615 55.277 146.644 55.5688 146.71 56.1264C146.718 56.198 146.721 56.2569 146.721 56.2933C146.724 56.393 146.751 56.4628 146.81 56.5055C147.23 56.6911 147.694 56.7853 148.19 56.7853C148.405 56.7853 148.644 56.7373 148.92 56.6383C149.194 56.537 149.424 56.3645 149.603 56.1245C149.785 55.883 149.878 55.6186 149.878 55.3396C149.878 55.136 149.829 54.9219 149.734 54.7036Z" fill="white"/>
<path d="M136.352 56.3887L136.338 56.3827C136.222 56.3387 136.104 56.3008 135.984 56.269C135.669 56.1802 135.579 56.1194 135.554 56.0913C135.51 56.0407 135.49 55.9477 135.493 55.8138L135.512 54.0213L135.506 52.021C135.513 51.8782 135.518 51.7762 135.518 51.7548C135.518 51.6667 135.509 51.5268 135.493 51.3389L135.49 51.3052L135.381 51.2954C135.351 51.2954 135.315 51.2992 135.262 51.3082L135.245 51.3112L135.235 51.3254C135.127 51.4854 134.996 51.6289 134.847 51.7514C134.713 51.8669 134.564 51.9625 134.403 52.0353C134.399 52.0375 134.356 52.0578 133.995 52.162L133.968 52.1699L133.959 52.4069L133.992 52.4144C134.326 52.4894 134.462 52.5524 134.517 52.5918C134.595 52.6473 134.643 52.6949 134.659 52.7305C134.674 52.7733 134.692 52.8933 134.692 53.2169C134.692 54.5395 134.688 55.3653 134.68 55.6717C134.68 55.8385 134.649 55.9612 134.588 56.0384C134.555 56.0842 134.48 56.1183 134.366 56.1385C133.788 56.2612 133.769 56.2705 133.759 56.275C133.647 56.3275 133.624 56.401 133.624 56.4539C133.624 56.4839 133.635 56.5165 133.661 56.5544L133.668 56.5657L133.681 56.5705C133.716 56.5837 133.754 56.591 133.791 56.5923H133.793C133.908 56.5799 134.019 56.572 134.132 56.5687C134.735 56.5522 135.026 56.5447 135.072 56.5447C135.177 56.5447 135.396 56.5585 135.72 56.5863C135.949 56.6017 136.153 56.6122 136.31 56.617H136.334L136.346 56.5964C136.367 56.5645 136.379 56.5278 136.382 56.4899C136.381 56.4594 136.373 56.4294 136.359 56.4022L136.352 56.3887Z" fill="white"/>
<path d="M119.946 51.6737C119.803 51.6737 119.596 51.7562 119.311 51.9272C119.249 51.9702 119.194 52.0207 119.145 52.0776L119.009 52.2119C118.817 52.4058 118.649 52.6211 118.507 52.8535L118.512 52.7747C118.512 52.1144 118.5 51.6775 118.478 51.4761L118.474 51.4412L118.218 51.4326L118.207 51.4566C118.074 51.733 117.911 51.961 117.72 52.1335C117.586 52.2494 117.312 52.3922 116.907 52.5591L116.886 52.5681L116.854 52.7961L116.883 52.8077C116.967 52.8426 117.077 52.8689 117.209 52.8865C117.493 52.9277 117.579 52.9784 117.606 53.005C117.633 53.0331 117.681 53.1182 117.699 53.3717C117.714 53.5772 117.722 54.3561 117.722 55.6877C117.722 55.9915 117.705 56.0931 117.69 56.1257C117.678 56.1517 117.657 56.1726 117.632 56.1846L116.784 56.3477L116.774 56.362C116.733 56.4265 116.714 56.4734 116.714 56.5097L116.749 56.6294L117.766 56.6042L118.085 56.581H118.684L119.038 56.5746L119.957 56.5934L119.969 56.5769C120.006 56.5304 120.024 56.4921 120.024 56.4599C120.025 56.435 120.018 56.4104 120.006 56.3888C119.994 56.3672 119.975 56.3495 119.954 56.3376C119.877 56.2889 119.756 56.2637 119.585 56.2619C119.546 56.2564 119.506 56.2526 119.466 56.2506C119.387 56.2341 119.143 56.2086 118.721 56.1722C118.694 56.1546 118.64 56.1182 118.626 56.0957C118.617 56.074 118.598 56.0132 118.584 55.8516L118.572 54.6779L118.542 53.7051C118.542 53.5424 118.6 53.368 118.72 53.1715C118.871 52.9116 119.002 52.7372 119.111 52.6521C119.136 52.6315 119.192 52.6071 119.315 52.6071C119.367 52.6071 119.486 52.6405 119.667 52.7069C119.857 52.7766 119.983 52.8111 120.052 52.8111C120.199 52.8121 120.34 52.7556 120.446 52.6536C120.532 52.57 120.576 52.4549 120.576 52.3127C120.576 52.1346 120.517 51.9827 120.399 51.8605C120.281 51.7367 120.129 51.6737 119.946 51.6737Z" fill="white"/>
<path d="M125.522 56.3887L125.507 56.3823C125.391 56.3387 125.273 56.3009 125.153 56.269C124.838 56.1805 124.748 56.1194 124.722 56.0913C124.679 56.0407 124.659 55.9477 124.662 55.8138L124.68 54.0213L124.674 52.3285V52.021C124.683 51.8444 124.686 51.7724 124.686 51.7548C124.686 51.6667 124.679 51.5268 124.662 51.3389L124.659 51.3052L124.55 51.2954C124.52 51.2954 124.482 51.2992 124.431 51.3082L124.414 51.3112L124.404 51.3254C124.296 51.4855 124.165 51.629 124.016 51.7514C123.863 51.8789 123.714 51.9738 123.571 52.0357C123.565 52.039 123.517 52.06 123.164 52.162L123.136 52.1699L123.128 52.4069L123.16 52.4144C123.495 52.4894 123.631 52.5524 123.686 52.5918C123.783 52.6608 123.817 52.7065 123.828 52.7305C123.843 52.7729 123.861 52.8914 123.861 53.2169C123.861 54.5718 123.857 55.3747 123.849 55.6717C123.849 55.8382 123.819 55.9608 123.756 56.0384C123.725 56.0842 123.648 56.1183 123.535 56.1385C122.957 56.2615 122.938 56.2705 122.928 56.275C122.816 56.3275 122.793 56.401 122.793 56.4539C122.793 56.4843 122.805 56.5169 122.829 56.5544L122.837 56.5657L122.85 56.5702C122.886 56.5836 122.923 56.5912 122.96 56.5927H122.961C123.075 56.5803 123.189 56.572 123.301 56.5687C123.905 56.5522 124.195 56.5447 124.242 56.5447C124.347 56.5447 124.565 56.5585 124.889 56.5863C125.122 56.6017 125.321 56.6122 125.479 56.617H125.503L125.515 56.5964C125.536 56.5646 125.548 56.5279 125.551 56.4899C125.55 56.4597 125.542 56.4301 125.529 56.4029L125.522 56.3887Z" fill="white"/>
<path d="M131.313 55.935H131.247L131.236 55.9433C131.097 56.0472 130.98 56.1117 130.9 56.1304C130.611 56.1934 130.422 56.2238 130.324 56.2238C130.132 56.2238 129.986 56.1597 129.89 56.0325C129.789 55.9058 129.739 55.6407 129.739 55.2458L129.751 53.6929L129.733 52.8116C129.733 52.698 129.745 52.596 129.771 52.5079L129.849 52.4993L131.229 52.4595H131.363L131.37 52.428C131.395 52.317 131.408 52.2375 131.408 52.1847C131.407 52.1224 131.402 52.0602 131.395 51.9983L131.391 51.963L131.356 51.9619C131.056 51.9501 130.755 51.9541 130.456 51.9739C130.163 51.9904 129.97 51.9979 129.867 51.9979C129.851 51.9979 129.816 51.9968 129.763 51.9942L129.774 51.3128L129.749 50.721L129.505 50.7124L129.493 50.7372C129.463 50.8039 129.415 50.9172 129.354 51.0777C129.27 51.2933 129.204 51.4399 129.16 51.5127C129.068 51.6558 128.957 51.7855 128.829 51.8982C128.693 52.0178 128.581 52.095 128.489 52.1333C128.286 52.2165 128.235 52.2525 128.214 52.2732C128.195 52.2908 128.18 52.3121 128.171 52.3358C128.161 52.3595 128.156 52.3851 128.157 52.4108C128.157 52.4498 128.173 52.4854 128.204 52.5101C128.241 52.5369 128.285 52.55 128.331 52.5473H128.333L128.858 52.5248L128.922 52.5289C128.928 52.629 128.931 52.7262 128.931 52.8192L128.937 53.6907L128.913 55.0137C128.913 55.5555 128.938 55.9137 128.987 56.0772C129.035 56.2448 129.148 56.3933 129.323 56.5174C129.494 56.6389 129.715 56.7012 129.978 56.7012C130.347 56.7012 130.635 56.6588 130.861 56.5718C131.089 56.483 131.292 56.3426 131.456 56.1615L131.465 56.1518L131.473 56.0918C131.474 56.0501 131.458 56.0098 131.43 55.9793C131.414 55.9644 131.396 55.9528 131.376 55.9452C131.356 55.9376 131.334 55.9341 131.313 55.935Z" fill="white"/>
<path d="M195.454 56.143C195.274 56.092 195.154 56.056 195.11 56.0421C195.047 55.9682 195.018 55.8584 195.022 55.7132L195.027 54.3426L195.022 53.8086V53.3219C195.013 52.7556 194.866 52.3191 194.584 52.0236C194.295 51.7315 193.923 51.5834 193.477 51.5834C193.183 51.5834 192.89 51.6535 192.602 51.7919C192.322 51.9291 192.013 52.1612 191.685 52.4819C191.509 52.1646 191.328 51.9471 191.131 51.8181C190.925 51.6846 190.656 51.6194 190.307 51.6194C190.017 51.6194 189.755 51.6719 189.528 51.7754C189.21 51.9216 188.852 52.1714 188.463 52.519C188.458 52.3986 188.455 52.2801 188.455 52.1665L188.461 51.499V51.4791L188.446 51.4667C188.415 51.4434 188.378 51.4298 188.339 51.4277C188.289 51.4315 188.252 51.433 188.229 51.433H188.174L188.161 51.448C187.906 51.7596 187.705 51.9696 187.563 52.0716C187.422 52.1747 187.234 52.2591 187.005 52.3229L186.975 52.3315V52.5914L187.006 52.5996C187.126 52.6311 187.227 52.6547 187.279 52.6641C187.408 52.6941 187.509 52.732 187.588 52.7796C187.636 53.0301 187.66 53.5641 187.66 54.3674C187.66 55.2111 187.646 55.708 187.619 55.8434C187.599 55.9427 187.556 56.0196 187.5 56.0676C187.421 56.1077 187.306 56.1374 187.149 56.1576C187.032 56.1745 186.939 56.2071 186.873 56.2547L186.861 56.263L186.857 56.2769C186.835 56.3612 186.832 56.3879 186.832 56.4032C186.832 56.4272 186.836 56.4546 186.845 56.4835L186.854 56.5135L187.542 56.4902L187.726 56.4899L188.02 56.4722C188.143 56.4685 188.285 56.4662 188.44 56.4662C188.591 56.4662 188.884 56.4816 189.336 56.5139L189.376 56.5169L189.379 56.4767C189.383 56.4276 189.385 56.3867 189.385 56.3492C189.387 56.3206 189.381 56.292 189.369 56.2661C189.357 56.2401 189.339 56.2174 189.316 56.2C189.234 56.1452 189.065 56.0999 188.813 56.0657C188.669 56.0432 188.577 56.0065 188.539 55.9551C188.516 55.9259 188.478 55.7946 188.474 55.249L188.449 53.2926C188.449 53.2064 188.451 53.1137 188.455 53.0095C188.637 52.7856 188.867 52.6043 189.127 52.4785C189.397 52.3446 189.671 52.2767 189.941 52.2767C190.228 52.2767 190.46 52.381 190.649 52.5951C190.836 52.8092 190.931 53.1557 190.931 53.6241L190.924 54.0554L190.937 54.8252L190.907 55.5081C190.897 55.8381 190.879 55.9375 190.87 55.9649C190.862 55.9866 190.849 56.0062 190.832 56.0222C190.705 56.0669 190.583 56.0987 190.47 56.1175C190.239 56.1587 190.068 56.2064 189.974 56.2559L189.955 56.2664L189.946 56.3616C189.946 56.3935 189.951 56.4404 189.959 56.497L189.964 56.5326L190.469 56.5262H192.175L192.47 56.5322H192.581L192.59 56.5266C192.638 56.4992 192.663 56.4516 192.663 56.3856C192.663 56.3507 192.656 56.3161 192.641 56.2844C192.627 56.2527 192.605 56.2248 192.578 56.2026L192.562 56.1947C192.474 56.1737 192.385 56.1572 192.295 56.1452C191.991 56.1021 191.889 56.0612 191.857 56.0354C191.811 55.9945 191.782 55.9304 191.772 55.8437C191.764 55.7852 191.75 55.5497 191.75 54.6325L191.775 53.9305V53.032L191.779 52.9067C191.985 52.6757 192.199 52.4987 192.415 52.3817C192.619 52.2669 192.849 52.2059 193.083 52.2047C193.378 52.2047 193.624 52.285 193.815 52.4432C194.008 52.6019 194.128 52.8257 194.173 53.107C194.2 53.2859 194.214 53.956 194.214 55.0994C194.214 55.7496 194.18 55.942 194.151 55.9896C194.115 56.053 194.009 56.0999 193.84 56.128C193.654 56.158 193.506 56.197 193.398 56.2442L193.386 56.2495L193.38 56.2607C193.352 56.3015 193.335 56.3488 193.332 56.398C193.332 56.4272 193.334 56.4587 193.338 56.4962L193.342 56.5334L193.38 56.5322C193.503 56.5285 193.587 56.5262 193.628 56.5262H193.928C194.188 56.5125 194.448 56.5045 194.708 56.5022C194.856 56.5022 194.967 56.5041 195.039 56.5082L195.631 56.5382H195.698L195.708 56.5131C195.735 56.4501 195.747 56.3954 195.747 56.3459C195.748 56.3243 195.744 56.3028 195.735 56.2831C195.726 56.2635 195.713 56.246 195.696 56.2322C195.686 56.224 195.655 56.1985 195.454 56.143Z" fill="white"/>
<path d="M200.904 56.3341L200.889 56.3281C200.773 56.2839 200.654 56.2459 200.534 56.2141C200.219 56.126 200.129 56.0652 200.104 56.0371C200.06 55.9861 200.04 55.8931 200.044 55.7596L200.062 53.9671L200.055 51.9661C200.064 51.7992 200.068 51.7186 200.068 51.6998C200.068 51.6125 200.059 51.4726 200.043 51.2847L200.04 51.2506L199.932 51.2412C199.902 51.2412 199.864 51.245 199.813 51.254L199.795 51.257L199.786 51.2712C199.678 51.4311 199.547 51.5745 199.397 51.6968C199.263 51.8123 199.113 51.908 198.952 51.9811C198.946 51.9845 198.898 52.0055 198.545 52.1075L198.517 52.1157L198.509 52.3523L198.542 52.3598C198.811 52.4206 198.988 52.4798 199.067 52.5372C199.164 52.6062 199.198 52.652 199.209 52.6756C199.224 52.7191 199.242 52.8387 199.242 53.1623C199.242 54.4853 199.239 55.3111 199.23 55.6171C199.23 55.7847 199.2 55.9073 199.137 55.9842C199.115 56.0157 199.059 56.0592 198.916 56.084C198.337 56.2073 198.32 56.2156 198.31 56.2208C198.198 56.2722 198.174 56.3465 198.174 56.3993C198.174 56.4293 198.186 56.462 198.211 56.4998L198.219 56.5115L198.232 56.516C198.267 56.5291 198.304 56.5365 198.342 56.5381H198.343C198.456 56.5256 198.569 56.5176 198.682 56.5141C199.218 56.4995 199.572 56.4901 199.623 56.4901C199.726 56.4901 199.937 56.5036 200.271 56.5317C200.504 56.5475 200.703 56.558 200.86 56.5621L200.884 56.5625L200.897 56.5418C200.917 56.5099 200.93 56.4733 200.932 56.4353C200.931 56.4054 200.923 56.376 200.91 56.3491L200.904 56.3341Z" fill="white"/>
<path d="M231.82 49.84C231.972 49.84 232.109 49.7822 232.226 49.6675C232.343 49.5505 232.4 49.4293 232.4 49.297C232.4 49.1661 232.341 49.0431 232.226 48.9317C232.173 48.8777 232.11 48.8349 232.04 48.8058C231.97 48.7767 231.895 48.7618 231.82 48.7622C231.669 48.7622 231.539 48.8132 231.435 48.9133C231.384 48.9587 231.343 49.0144 231.316 49.0767C231.288 49.1391 231.274 49.2066 231.274 49.2748C231.274 49.4421 231.328 49.5786 231.432 49.681C231.482 49.7328 231.543 49.7737 231.609 49.8011C231.676 49.8284 231.748 49.8417 231.82 49.84Z" fill="white"/>
<path d="M199.558 49.84C199.711 49.84 199.849 49.7822 199.966 49.6675C200.083 49.5505 200.14 49.4293 200.14 49.297C200.14 49.1661 200.081 49.0431 199.965 48.9317C199.912 48.8777 199.849 48.8349 199.779 48.8057C199.709 48.7766 199.634 48.7618 199.558 48.7622C199.408 48.7622 199.279 48.8132 199.175 48.9133C199.124 48.9587 199.083 49.0144 199.055 49.0767C199.028 49.1391 199.014 49.2066 199.014 49.2748C199.014 49.4421 199.068 49.5786 199.172 49.681C199.275 49.7867 199.405 49.84 199.558 49.84Z" fill="white"/>
<path d="M171.426 49.84C171.579 49.84 171.716 49.7822 171.833 49.6675C171.95 49.5505 172.007 49.4293 172.007 49.297C172.007 49.1661 171.948 49.0431 171.833 48.9317C171.779 48.8777 171.716 48.8349 171.646 48.8057C171.576 48.7766 171.501 48.7618 171.426 48.7622C171.276 48.7622 171.146 48.8132 171.042 48.9133C170.935 49.0131 170.881 49.1346 170.881 49.2748C170.881 49.4425 170.934 49.5793 171.039 49.681C171.089 49.7328 171.149 49.7736 171.215 49.801C171.282 49.8284 171.354 49.8416 171.426 49.84Z" fill="white"/>
<path d="M172.771 56.3341L172.756 56.3281C172.64 56.2839 172.521 56.2459 172.401 56.2141C172.085 56.1263 171.995 56.0652 171.971 56.0371C171.927 55.9861 171.907 55.8931 171.911 55.7596L171.929 53.9671L171.922 51.9661C171.93 51.8236 171.934 51.7216 171.934 51.6998C171.934 51.608 171.926 51.4643 171.911 51.2847L171.908 51.2506L171.798 51.2412C171.768 51.2412 171.731 51.245 171.679 51.254L171.662 51.257L171.652 51.2712C171.546 51.4287 171.416 51.572 171.264 51.6968C171.108 51.8262 170.964 51.9185 170.819 51.9811C170.813 51.9845 170.766 52.0055 170.412 52.1075L170.384 52.1157L170.376 52.3523L170.409 52.3598C170.677 52.4202 170.854 52.4798 170.934 52.5372C171.031 52.6062 171.065 52.652 171.075 52.676C171.091 52.718 171.109 52.8361 171.109 53.1623C171.109 54.5221 171.105 55.3246 171.097 55.6175C171.097 55.784 171.066 55.9066 171.004 55.9842C170.982 56.0161 170.926 56.0592 170.783 56.084C170.202 56.2077 170.187 56.2156 170.177 56.2205C170.064 56.2722 170.04 56.3465 170.04 56.3993C170.04 56.4301 170.053 56.4631 170.078 56.5002L170.086 56.5115L170.099 56.516C170.134 56.529 170.171 56.5364 170.208 56.5381H170.21C170.318 56.5257 170.432 56.5178 170.549 56.5141C171.099 56.4991 171.438 56.4901 171.489 56.4901C171.592 56.4901 171.804 56.5036 172.137 56.5317C172.37 56.5475 172.569 56.558 172.727 56.5621L172.752 56.5625L172.764 56.5418C172.784 56.5099 172.796 56.4732 172.799 56.4353C172.799 56.4091 172.791 56.3791 172.777 56.3491L172.771 56.3341Z" fill="white"/>
<path d="M183.908 56.143C183.792 56.1107 183.678 56.0771 183.564 56.0421C183.501 55.9682 183.472 55.8584 183.475 55.7132L183.481 54.3426L183.475 53.8086V53.3219C183.466 52.7556 183.319 52.3191 183.037 52.0236C182.749 51.7315 182.376 51.5834 181.93 51.5834C181.637 51.5834 181.343 51.6535 181.056 51.7919C180.774 51.9299 180.466 52.162 180.14 52.4819C179.964 52.1654 179.782 51.9479 179.586 51.8181C179.379 51.6846 179.109 51.6194 178.761 51.6194C178.47 51.6194 178.208 51.6719 177.981 51.7754C177.663 51.922 177.305 52.1721 176.916 52.519C176.912 52.3877 176.909 52.2715 176.909 52.1665L176.915 51.499V51.4791L176.899 51.4667C176.869 51.4435 176.832 51.4299 176.793 51.4277C176.742 51.4315 176.706 51.433 176.682 51.433H176.627L176.615 51.448C176.362 51.7585 176.16 51.9685 176.016 52.0716C175.876 52.1744 175.689 52.2591 175.459 52.3229L175.429 52.3315V52.5914L175.46 52.5996C175.63 52.6442 175.709 52.6596 175.732 52.6641C175.861 52.6941 175.962 52.732 176.042 52.7796C176.089 53.0301 176.113 53.5641 176.113 54.3674C176.113 55.2104 176.1 55.7069 176.073 55.8434C176.052 55.9431 176.009 56.0196 175.953 56.0676C175.875 56.1077 175.76 56.1374 175.602 56.1576C175.485 56.1745 175.393 56.2075 175.326 56.2547L175.314 56.263L175.311 56.2769C175.288 56.3609 175.285 56.3879 175.285 56.4032C175.285 56.428 175.29 56.4557 175.3 56.4846L175.309 56.5131L175.996 56.4902L176.181 56.4899L176.473 56.4722C176.597 56.4685 176.738 56.4662 176.895 56.4662C177.043 56.4662 177.345 56.4824 177.789 56.5139L177.829 56.5169L177.833 56.4771C177.837 56.4347 177.839 56.3922 177.839 56.3496C177.84 56.3209 177.835 56.2922 177.823 56.2661C177.81 56.24 177.792 56.2173 177.769 56.2C177.688 56.1452 177.519 56.0999 177.267 56.0657C177.122 56.0432 177.03 56.0065 176.993 55.9551C176.97 55.9259 176.931 55.795 176.927 55.249L176.903 53.2926C176.903 53.2064 176.905 53.1134 176.908 53.0095C177.091 52.7859 177.321 52.6047 177.581 52.4785C177.851 52.3446 178.125 52.2767 178.394 52.2767C178.681 52.2767 178.913 52.381 179.102 52.5951C179.29 52.8089 179.384 53.1557 179.384 53.6241L179.379 54.0554L179.391 54.8252L179.36 55.5081C179.35 55.8392 179.332 55.9375 179.323 55.9656C179.315 55.987 179.303 56.0063 179.286 56.0219C179.158 56.0669 179.036 56.0991 178.924 56.1175C178.692 56.1587 178.521 56.2067 178.428 56.2559L178.409 56.266L178.4 56.3616C178.4 56.3894 178.404 56.4306 178.412 56.4966L178.417 56.5326L178.923 56.5262H180.629L180.924 56.5322H181.034L181.043 56.5266C181.091 56.4992 181.116 56.4516 181.116 56.3856C181.117 56.3506 181.11 56.3159 181.095 56.2841C181.08 56.2523 181.058 56.2243 181.031 56.2022L181.016 56.1947C180.928 56.1737 180.839 56.1572 180.749 56.1452C180.446 56.1025 180.342 56.0612 180.31 56.0354C180.264 55.9945 180.236 55.9304 180.225 55.8437C180.217 55.7871 180.204 55.5542 180.204 54.6325L180.228 53.9305V53.0324L180.233 52.9067C180.439 52.6757 180.652 52.4991 180.869 52.3817C181.073 52.2669 181.302 52.206 181.536 52.2047C181.831 52.2047 182.077 52.285 182.268 52.4432C182.461 52.6019 182.581 52.8257 182.626 53.107C182.653 53.2859 182.667 53.956 182.667 55.0994C182.667 55.7507 182.634 55.9427 182.605 55.9892C182.568 56.053 182.463 56.0999 182.293 56.128C182.107 56.158 181.959 56.197 181.851 56.2442L181.839 56.2495L181.833 56.2607C181.805 56.3015 181.789 56.3488 181.785 56.398C181.785 56.4269 181.788 56.458 181.791 56.4955L181.795 56.533L181.833 56.5322C181.957 56.5285 182.04 56.5262 182.082 56.5262H182.382C182.642 56.5125 182.902 56.5045 183.162 56.5022C183.31 56.5022 183.421 56.5041 183.492 56.5079L184.084 56.5386H184.152L184.163 56.5127C184.189 56.4479 184.202 56.3935 184.202 56.3459C184.202 56.3242 184.198 56.3027 184.189 56.283C184.18 56.2633 184.167 56.2458 184.15 56.2319C184.139 56.2236 184.107 56.1974 183.908 56.143Z" fill="white"/>
<path d="M214.628 51.6192C214.484 51.6192 214.277 51.7017 213.992 51.8727C213.931 51.9158 213.875 51.9662 213.826 52.0227L213.69 52.1577C213.499 52.3515 213.331 52.5665 213.189 52.7985L213.194 52.7198C213.194 52.0733 213.182 51.6244 213.16 51.4215L213.156 51.3867L212.9 51.3784L212.889 51.402C212.756 51.6792 212.592 51.9072 212.402 52.0793C212.267 52.1952 211.994 52.338 211.589 52.5049L211.567 52.5135L211.536 52.7419L211.565 52.7532C211.647 52.7877 211.757 52.8139 211.89 52.8319C212.175 52.8732 212.262 52.9242 212.288 52.9504C212.321 52.9849 212.364 53.0764 212.381 53.3179C212.396 53.5238 212.404 54.3027 212.404 55.6332C212.404 55.9519 212.384 56.0438 212.372 56.0704C212.36 56.0967 212.34 56.1179 212.314 56.1304L211.828 56.22L211.466 56.2932L211.456 56.3074C211.415 56.3723 211.396 56.4192 211.396 56.4555L211.431 56.5748L212.448 56.55L212.767 56.526H213.366L213.72 56.5204L214.639 56.5388L214.651 56.5227C214.688 56.4762 214.706 56.4375 214.706 56.4053C214.707 56.3804 214.7 56.3559 214.688 56.3344C214.675 56.3129 214.657 56.2953 214.635 56.2834C214.559 56.2343 214.437 56.2095 214.267 56.2077C214.228 56.2021 214.188 56.1981 214.148 56.1957C214.069 56.1799 213.833 56.1548 213.402 56.1177C213.375 56.1 213.321 56.0629 213.308 56.0404C213.297 56.0157 213.28 55.9527 213.266 55.7967L213.254 54.6237L213.224 53.6505C213.224 53.4912 213.284 53.3115 213.402 53.1169C213.554 52.8563 213.684 52.6819 213.792 52.5975C213.83 52.5675 213.898 52.5525 213.997 52.5525C214.033 52.5525 214.124 52.5702 214.35 52.6523C214.539 52.7224 214.665 52.7569 214.734 52.7569C214.88 52.7578 215.022 52.7013 215.127 52.5994C215.214 52.515 215.259 52.3999 215.259 52.2582C215.259 52.0804 215.199 51.9282 215.081 51.8059C214.964 51.6822 214.811 51.6192 214.627 51.6192H214.628Z" fill="white"/>
<path d="M208.74 52.2034C208.676 52.1659 208.597 52.1479 208.496 52.1479C208.445 52.1479 208.29 52.164 208.037 52.1955C207.722 52.2356 207.603 52.2435 207.558 52.2435C207.486 52.2435 207.42 52.2341 207.364 52.2165C207.351 52.2113 207.3 52.185 207.093 52.056C206.838 51.8933 206.653 51.7954 206.529 51.7575C206.291 51.6797 206.043 51.6411 205.794 51.6431C205.206 51.6431 204.718 51.8295 204.345 52.197C203.969 52.5653 203.778 53.0228 203.778 53.5564C203.778 54.2066 204.078 54.7211 204.668 55.0856C204.74 55.1306 204.8 55.1681 204.847 55.1985C204.697 55.2656 204.511 55.3358 204.293 55.4066C204.029 55.4921 203.858 55.5806 203.769 55.6763C203.704 55.7483 203.671 55.8413 203.671 55.9511C203.671 56.0749 203.712 56.1848 203.798 56.2871C203.879 56.3854 204.072 56.5331 204.378 56.7289C204.543 56.7979 204.675 56.853 204.755 56.8883C204.699 56.9183 204.623 56.9588 204.527 57.0075C204.027 57.2561 203.692 57.5006 203.529 57.7346C203.368 57.9683 203.286 58.1678 203.286 58.3279C203.286 58.5116 203.361 58.698 203.509 58.8836C203.655 59.0674 203.897 59.2339 204.249 59.3914C204.593 59.5451 205.086 59.6228 205.714 59.6228C206.284 59.6228 206.796 59.5373 207.236 59.3681C207.676 59.2016 208.012 58.9774 208.234 58.7014C208.454 58.4261 208.566 58.1228 208.566 57.7999C208.566 57.5606 208.5 57.3244 208.369 57.0975C208.24 56.8718 208.044 56.6978 207.787 56.5808C207.534 56.4671 207.177 56.4011 206.726 56.3846C205.699 56.3528 204.996 56.2384 204.637 56.0438C204.513 55.9751 204.448 55.9031 204.448 55.8368C204.448 55.7749 204.516 55.6999 204.644 55.62C204.933 55.4436 205.266 55.352 205.605 55.3556C205.713 55.3594 205.782 55.362 205.804 55.362C206.125 55.362 206.447 55.2814 206.76 55.1228C207.07 54.9666 207.328 54.7244 207.504 54.4253C207.682 54.1226 207.773 53.8256 207.773 53.5425C207.773 53.2733 207.696 52.9744 207.543 52.6526C207.574 52.6489 207.588 52.6489 207.593 52.6489C207.644 52.6489 207.791 52.6793 208.043 52.743C208.296 52.8079 208.481 52.8409 208.595 52.8409C208.668 52.8409 208.726 52.8214 208.766 52.7846C208.808 52.7464 208.829 52.692 208.829 52.6178C208.829 52.434 208.804 52.299 208.754 52.2169L208.74 52.2034ZM204.92 52.332C205.103 52.08 205.377 51.9525 205.734 51.9525C206.053 51.9525 206.33 52.0883 206.556 52.356C206.784 52.626 206.899 53.0261 206.899 53.5463C206.899 54.0645 206.789 54.4534 206.571 54.7024C206.351 54.9544 206.083 55.0766 205.752 55.0766C205.574 55.0766 205.393 55.0211 205.215 54.9105C205.038 54.8003 204.897 54.6293 204.795 54.402C204.692 54.1744 204.64 53.8845 204.64 53.5403C204.64 52.9965 204.734 52.5893 204.92 52.332ZM205.756 59.3138C205.224 59.3138 204.78 59.1799 204.436 58.917C204.181 58.7029 204.052 58.4595 204.052 58.194C204.052 57.906 204.176 57.6544 204.42 57.4463C204.739 57.1755 205.109 57.0383 205.52 57.0383C205.674 57.0383 206.11 57.0656 206.717 57.114C206.952 57.1305 207.123 57.1553 207.24 57.1886C207.412 57.2336 207.546 57.2929 207.65 57.3698C207.752 57.447 207.831 57.5411 207.89 57.6581C207.951 57.7759 207.98 57.8903 207.98 58.0076C207.98 58.2011 207.896 58.4033 207.723 58.6253C207.55 58.8439 207.273 59.0149 206.9 59.1338C206.523 59.2534 206.139 59.3138 205.756 59.3138Z" fill="white"/>
<path d="M233.163 56.3341L233.149 56.3281C233.033 56.2839 232.914 56.2459 232.794 56.2141C232.479 56.1263 232.389 56.0652 232.365 56.0371C232.32 55.9861 232.3 55.8931 232.304 55.7596L232.322 53.9671L232.316 51.9661C232.324 51.7992 232.328 51.7186 232.328 51.6998C232.328 51.6125 232.32 51.4726 232.304 51.2847L232.301 51.2506L232.192 51.2412C232.162 51.2412 232.124 51.245 232.073 51.254L232.056 51.257L232.046 51.2712C231.938 51.4311 231.807 51.5745 231.657 51.6968C231.505 51.8236 231.357 51.9185 231.212 51.9811C231.206 51.9845 231.159 52.0055 230.805 52.1075L230.777 52.1157L230.769 52.3523L230.802 52.3598C231.071 52.4206 231.249 52.4798 231.327 52.5372C231.425 52.6062 231.459 52.652 231.469 52.676C231.485 52.7187 231.503 52.838 231.503 53.1623C231.503 54.4853 231.499 55.3111 231.491 55.6175C231.491 55.7843 231.46 55.907 231.399 55.9838C231.376 56.0157 231.32 56.0588 231.177 56.084C230.598 56.2073 230.58 56.2156 230.57 56.2205C230.458 56.2718 230.434 56.3461 230.434 56.3993C230.436 56.436 230.449 56.4712 230.472 56.5002L230.479 56.5115L230.492 56.516C230.527 56.529 230.564 56.5364 230.602 56.5381H230.603C230.712 56.5257 230.825 56.5178 230.942 56.5141C231.256 56.5048 231.569 56.4968 231.883 56.4901C231.986 56.4901 232.197 56.5036 232.53 56.5317C232.764 56.5478 232.963 56.558 233.121 56.5621L233.145 56.5625L233.157 56.5418C233.177 56.5099 233.189 56.4732 233.192 56.4353C233.191 56.405 233.184 56.3752 233.17 56.348L233.163 56.3341Z" fill="white"/>
<path d="M249.965 56.2788C249.895 56.1993 249.675 56.1355 249.295 56.0845C249.226 56.0403 249.182 55.9957 249.169 55.9593C249.146 55.888 249.135 55.7155 249.135 55.447C249.135 55.2944 249.136 55.1335 249.142 54.991L249.145 54.9363C249.15 54.8358 249.153 54.7754 249.153 54.7548V53.8683C249.153 53.1629 249.118 52.7043 249.048 52.4669C248.976 52.2254 248.82 52.0135 248.583 51.8376C248.346 51.6606 248.06 51.5707 247.73 51.5707C247.572 51.5707 247.43 51.5875 247.309 51.6202C247.117 51.6622 246.898 51.7387 246.641 51.8545C246.381 51.9715 246.136 52.1181 245.909 52.2914C245.875 52.317 245.84 52.342 245.805 52.3664L245.803 51.9419C245.803 51.8549 245.797 51.7135 245.785 51.5429L245.783 51.5062L245.517 51.499L245.505 51.5215C245.358 51.8152 245.175 52.0495 244.961 52.2187C244.817 52.3402 244.61 52.4369 244.329 52.5149L244.299 52.5235V52.7995L244.335 52.8044C244.603 52.8438 244.798 52.9184 244.894 53.0182C244.932 53.0628 244.978 53.1757 244.978 53.4625L244.99 55.2651C244.99 55.381 244.989 55.4812 244.985 55.5629L244.972 55.777C244.972 55.9709 244.94 56.0433 244.914 56.0695C244.888 56.0924 244.801 56.1382 244.493 56.1832C244.377 56.199 244.262 56.2228 244.149 56.2544L244.126 56.2604L244.12 56.284C244.108 56.3384 244.102 56.3778 244.102 56.4157L244.12 56.5259H244.855L246.111 56.5383H246.762L246.771 56.3695L246.766 56.3605C246.733 56.2893 246.671 56.2413 246.579 56.2173C246.548 56.2116 246.489 56.1955 246.399 56.1711L246.339 56.1547C246.231 56.1213 246.122 56.0938 246.011 56.0722C245.9 56.0482 245.858 56.0204 245.846 56.0088C245.833 55.9938 245.823 55.957 245.815 55.9C245.796 55.7485 245.785 55.333 245.785 54.664L245.767 53.3722C245.767 53.2488 245.771 53.0977 245.779 52.9098C246.006 52.6882 246.243 52.5198 246.483 52.4106C246.717 52.3 246.973 52.242 247.232 52.2408C247.56 52.2408 247.824 52.333 248.018 52.5153C248.211 52.6994 248.31 53.0395 248.31 53.5251L248.297 53.9946V54.2992C248.302 55.0102 248.31 55.4617 248.322 55.6413C248.331 55.7377 248.333 55.7815 248.333 55.8014C248.333 55.8543 248.313 55.924 248.272 56.0084C248.229 56.0415 248.182 56.0692 248.132 56.0909C248.085 56.1082 247.988 56.1171 247.908 56.1228C247.715 56.1389 247.561 56.1715 247.449 56.2203L247.437 56.2255L247.43 56.2368C247.399 56.2911 247.385 56.3286 247.385 56.3613L247.43 56.5364L247.46 56.5379C247.601 56.5454 247.753 56.5488 247.912 56.5488C248.019 56.5488 248.131 56.5469 248.245 56.5439L249.009 56.5259L249.787 56.5383H249.926L249.936 56.5124C249.963 56.4468 249.975 56.3958 249.975 56.3512V56.29L249.965 56.2788Z" fill="white"/>
<path d="M238.64 51.6431C238.126 51.6431 237.682 51.7271 237.323 51.8932C237.069 52.0102 236.822 52.1939 236.592 52.4381C236.365 52.6752 236.189 52.9565 236.075 53.2646C235.963 53.5706 235.907 53.8623 235.907 54.1308C235.907 54.6138 236.025 55.0526 236.259 55.4339C236.491 55.8112 236.772 56.1014 237.097 56.2964C237.517 56.5486 237.998 56.6818 238.488 56.6819C239.281 56.6819 239.946 56.4311 240.463 55.9364C240.982 55.4414 241.245 54.8696 241.245 54.2366C241.245 53.5252 240.994 52.9091 240.5 52.4036C240.003 51.8988 239.377 51.6431 238.64 51.6431ZM240.022 55.3859C239.862 55.7298 239.646 55.9829 239.377 56.1382C239.123 56.2899 238.834 56.3708 238.538 56.3726C238.07 56.3726 237.674 56.1926 237.362 55.8382C237.047 55.4831 236.888 54.9494 236.888 54.2527C236.888 53.6294 236.98 53.1438 237.162 52.8089C237.342 52.4752 237.564 52.2472 237.825 52.1309C238.085 52.0121 238.344 51.9524 238.596 51.9524C238.942 51.9524 239.247 52.0514 239.502 52.2461C239.758 52.4403 239.951 52.7373 240.075 53.1303C240.201 53.5297 240.264 53.8818 240.264 54.1766C240.264 54.6341 240.183 55.0409 240.022 55.3859Z" fill="white"/>
<path d="M222.303 55.6462L222.271 55.6541C222.174 55.6777 222.145 55.6916 222.131 55.7013L222.048 55.8056C221.949 55.9451 221.835 56.0126 221.698 56.0126C221.654 56.0126 221.609 56.0033 221.569 55.9851C221.528 55.967 221.492 55.9404 221.462 55.9072C221.394 55.8367 221.361 55.7414 221.361 55.6229C221.361 55.5697 221.363 55.4838 221.367 55.3732C221.37 55.3087 221.373 55.2314 221.373 55.1407L221.367 54.4574L221.385 53.5199C221.385 52.9829 221.377 52.6784 221.36 52.5903C221.331 52.3983 221.249 52.2182 221.123 52.0702C221.007 51.92 220.851 51.805 220.673 51.7379C220.504 51.6742 220.254 51.6431 219.91 51.6431C219.659 51.6431 219.362 51.7353 219.026 51.9168C218.69 52.0998 218.409 52.3773 218.19 52.7414C217.967 53.1108 217.859 53.3444 217.859 53.4566C217.859 53.4903 217.872 53.5398 217.934 53.5856C218.012 53.6407 218.099 53.6688 218.192 53.6688C218.299 53.6688 218.438 53.6126 218.615 53.4963L218.624 53.4911L218.629 53.4817C218.691 53.3732 218.737 53.2569 218.767 53.1359C218.839 52.7722 218.946 52.5232 219.085 52.3961C219.316 52.1864 219.556 52.0848 219.818 52.0848C220.062 52.0848 220.252 52.1692 220.383 52.3368C220.516 52.5067 220.583 52.8416 220.583 53.3324C220.583 53.4802 220.58 53.6156 220.573 53.7348C220.338 53.8433 220.101 53.9467 219.862 54.0449C219.29 54.2849 218.831 54.5977 218.497 54.9742C218.156 55.3627 217.991 55.6874 217.991 55.9672C217.991 56.1622 218.052 56.3264 218.174 56.4562C218.299 56.5822 218.468 56.6463 218.676 56.6463C218.949 56.6463 219.189 56.6201 219.391 56.5683C219.516 56.5316 219.692 56.4476 219.931 56.3107L220.534 55.8922C220.572 56.1307 220.632 56.2957 220.715 56.3947C220.864 56.5773 221.088 56.6699 221.382 56.6699C221.553 56.6699 221.691 56.6381 221.791 56.5762C221.946 56.4817 222.087 56.3339 222.209 56.1367C222.311 55.9739 222.357 55.8716 222.357 55.8052C222.353 55.7597 222.339 55.7156 222.317 55.6758L222.303 55.6462ZM220.577 54.4649C220.577 54.6648 220.564 55.0124 220.537 55.4969C220.293 55.7287 220.059 55.9001 219.84 56.0069C219.668 56.0917 219.527 56.1329 219.412 56.1329C219.264 56.1329 219.141 56.0857 219.046 55.9919C218.998 55.9467 218.96 55.8919 218.935 55.8312C218.91 55.7705 218.898 55.7051 218.9 55.6394C218.9 55.4891 218.961 55.3252 219.083 55.1519C219.253 54.9078 219.487 54.6881 219.778 54.4987C220.057 54.3187 220.315 54.1859 220.563 54.0929C220.573 54.2482 220.577 54.3704 220.577 54.4646V54.4649Z" fill="white"/>
<path d="M228.123 55.8808H228.057L228.047 55.8887C227.907 55.9926 227.79 56.0575 227.711 56.0762C227.425 56.1377 227.232 56.1692 227.135 56.1692C226.942 56.1692 226.796 56.1055 226.7 55.978C226.6 55.8516 226.55 55.5868 226.55 55.1916L226.561 53.638L226.544 52.7567C226.544 52.6442 226.556 52.5422 226.582 52.4537L226.66 52.4451L228.039 52.405H228.174L228.181 52.3731C228.206 52.261 228.218 52.1818 228.218 52.1305C228.218 52.0802 228.213 52.0153 228.205 51.943L228.201 51.9085L228.166 51.9073C228.006 51.9036 227.888 51.9013 227.807 51.9013C227.633 51.9013 227.451 51.9077 227.267 51.9201C226.981 51.9355 226.782 51.9433 226.677 51.9433C226.642 51.9428 226.608 51.9416 226.574 51.9396L226.585 51.2578L226.559 50.6665L226.314 50.6582L226.303 50.683C226.286 50.7231 226.232 50.8442 226.165 51.0235C226.082 51.2335 226.015 51.3838 225.971 51.4581C225.878 51.6009 225.767 51.7305 225.64 51.8436C225.504 51.9628 225.393 52.0401 225.299 52.0791C225.096 52.1616 225.045 52.1991 225.025 52.2186C225.006 52.2361 224.991 52.2574 224.981 52.2812C224.971 52.3049 224.967 52.3305 224.967 52.3562C224.967 52.3956 224.984 52.4312 225.015 52.456C225.051 52.4826 225.096 52.4956 225.141 52.4927H225.144L225.668 52.4702L225.732 52.4747C225.739 52.5692 225.742 52.666 225.742 52.7646L225.747 53.6361L225.724 54.9595C225.724 55.5115 225.748 55.8595 225.798 56.023C225.846 56.191 225.959 56.3387 226.133 56.4625C226.305 56.5847 226.525 56.6462 226.789 56.6462C227.157 56.6462 227.446 56.6042 227.672 56.5176C227.899 56.4283 228.103 56.2877 228.267 56.107L228.276 56.098L228.284 56.0376C228.285 55.9958 228.269 55.9554 228.24 55.9251C228.225 55.91 228.207 55.8983 228.186 55.8907C228.166 55.8831 228.145 55.8797 228.123 55.8808Z" fill="white"/>
<path fill-rule="evenodd" clip-rule="evenodd" d="M78.3911 52.7329L77.0074 54.5685L78.4189 56.3633L79.665 54.5685L78.3911 52.7329Z" fill="white"/>
<path fill-rule="evenodd" clip-rule="evenodd" d="M161.451 52.7329L160.066 54.5685L161.478 56.3633L162.725 54.5685L161.451 52.7329Z" fill="white"/>
</g>
<defs>
<clipPath id="clip0_14_5">
<rect width="253.5" height="60" fill="white"/>
</clipPath>
</defs>
</svg>
