<svg width="20" height="20" viewBox="0 0 20 20" fill="none" xmlns="http://www.w3.org/2000/svg">
<g clip-path="url(#clip0_36_2054)">
<path fill-rule="evenodd" clip-rule="evenodd" d="M19.9993 12.9042C19.9386 13.1683 19.8956 13.438 19.8143 13.6956C19.4931 14.7124 18.8505 15.4968 18.0132 16.1345C17.8891 16.229 17.7582 16.3145 17.631 16.4049C17.6209 16.4121 17.6149 16.4249 17.5949 16.4506C17.9667 17.1958 18.3421 17.9485 18.7391 18.7444C18.6384 18.7076 18.5801 18.6892 18.524 18.6652C17.5683 18.2561 16.6108 17.8508 15.6588 17.4331C15.4652 17.3481 15.2855 17.3273 15.0785 17.3669C13.2079 17.7244 11.4505 17.411 9.83811 16.4023C8.80556 15.7563 8.0379 14.8711 7.68105 13.6787C7.34654 12.5607 7.47882 11.4861 8.05088 10.4778C8.80601 9.14686 9.98802 8.33896 11.4147 7.88323C13.1624 7.32494 14.9055 7.38327 16.6089 8.07445C17.8032 8.55907 18.7824 9.31945 19.4386 10.4527C19.7222 10.9423 19.8953 11.4702 19.9665 12.0318C19.9737 12.0887 19.9882 12.1446 19.9993 12.2011C19.9993 12.4355 19.9993 12.6698 19.9993 12.9042ZM12.8114 11.2598C12.809 10.7504 12.3858 10.3285 11.8765 10.3279C11.3672 10.3274 10.9432 10.7485 10.9397 11.258C10.9363 11.7744 11.3682 12.2049 11.8845 12.1996C12.3939 12.1944 12.8138 11.7687 12.8114 11.2598ZM15.6347 10.3279C15.1262 10.3222 14.6977 10.7397 14.6891 11.2491C14.6806 11.7577 15.0956 12.188 15.6055 12.1995C16.1214 12.2111 16.5579 11.7857 16.5609 11.2686C16.5637 10.7599 16.1441 10.3336 15.6347 10.3279Z" fill="#212121"/>
<path fill-rule="evenodd" clip-rule="evenodd" d="M14.877 6.29521C14.2468 6.29521 13.6669 6.25727 13.0934 6.30193C10.9032 6.47254 9.00517 7.28536 7.57068 8.99384C6.56995 10.1858 6.11788 11.5745 6.29432 13.1418C6.31377 13.3143 6.35157 13.4847 6.39173 13.7198C5.88286 13.5937 5.40621 13.5027 4.94902 13.3524C4.67469 13.2623 4.45224 13.2722 4.19206 13.3913C3.50123 13.7076 2.79737 13.9953 2.09843 14.2938C2.04643 14.3161 1.99256 14.3337 1.88725 14.373C2.22486 13.6957 2.54098 13.0614 2.84921 12.4429C2.47518 12.1244 2.09095 11.8331 1.74891 11.4987C0.834518 10.6047 0.24321 9.52999 0.0568487 8.2557C-0.111405 7.10545 0.0961554 6.01003 0.648524 4.99317C1.55949 3.31617 3.00013 2.27747 4.78398 1.69953C6.72396 1.07105 8.66834 1.1073 10.5787 1.82371C12.2889 2.46513 13.6455 3.54055 14.4612 5.21381C14.6303 5.56059 14.7407 5.93596 14.877 6.29521ZM5.9382 5.01752C5.93987 4.50855 5.51945 4.08346 5.00997 4.07896C4.50143 4.07447 4.07386 4.4929 4.06653 5.00228C4.05909 5.51844 4.48784 5.95195 5.00448 5.95061C5.51388 5.94935 5.93653 5.52694 5.9382 5.01752ZM10.0051 5.95061C10.5146 5.94851 10.9366 5.5255 10.9374 5.01616C10.9382 4.50698 10.5173 4.08263 10.0078 4.07896C9.49142 4.07522 9.06071 4.5069 9.06572 5.02318C9.07068 5.53262 9.49614 5.95274 10.0051 5.95061Z" fill="#212121"/>
</g>
<defs>
<clipPath id="clip0_36_2054">
<rect width="20" height="20" fill="white"/>
</clipPath>
</defs>
</svg>
