<svg width="16" height="16" viewBox="0 0 16 16" fill="none" xmlns="http://www.w3.org/2000/svg">
<g clip-path="url(#clip0_26_3379)">
<path fill-rule="evenodd" clip-rule="evenodd" d="M8.97751 16C7.86423 16 6.77875 16 5.67578 16C5.67578 12.4485 5.67578 8.89827 5.67578 5.33421C6.7178 5.33421 7.76257 5.33421 8.83322 5.33421C8.83322 5.80612 8.83322 6.27744 8.83322 6.77057C8.87729 6.74565 8.89813 6.74108 8.90598 6.72841C9.60226 5.60575 10.6437 5.1088 11.9308 5.07009C12.6661 5.04794 13.3857 5.1373 14.0606 5.45561C14.9344 5.86771 15.4237 6.59046 15.694 7.48914C15.9096 8.20632 15.9841 8.94512 15.9891 9.68752C16.003 11.745 15.9976 13.8026 15.9995 15.8602C15.9995 15.8916 15.9951 15.9231 15.9918 15.9669C14.8923 15.9669 13.802 15.9669 12.6809 15.9669C12.6809 15.8955 12.6809 15.8205 12.6808 15.7456C12.6801 14.0006 12.6856 12.2555 12.674 10.5105C12.6714 10.1155 12.6401 9.71517 12.5686 9.3271C12.3673 8.23464 11.6569 7.86362 10.6396 7.98378C9.71307 8.09319 9.20328 8.63558 9.05908 9.63854C9.0065 10.0044 8.98285 10.3772 8.98108 10.747C8.97302 12.4138 8.97751 14.0808 8.97751 15.7476C8.97751 15.8251 8.97751 15.9025 8.97751 16Z" fill="#212121"/>
<path fill-rule="evenodd" clip-rule="evenodd" d="M0.275391 5.33167C1.3826 5.33167 2.47269 5.33167 3.57349 5.33167C3.57349 8.8884 3.57349 12.4333 3.57349 15.993C2.47531 15.993 1.38058 15.993 0.275391 15.993C0.275391 12.4406 0.275391 8.89514 0.275391 5.33167Z" fill="#212121"/>
<path fill-rule="evenodd" clip-rule="evenodd" d="M3.83801 1.91524C3.84396 2.97603 2.98383 3.85538 1.93439 3.86148C0.87912 3.86762 0.000366367 2.98674 1.17032e-07 1.92243C-0.000366133 0.875429 0.858948 0.00953916 1.90781 7.85356e-05C2.96509 -0.00945803 3.83206 0.850741 3.83801 1.91524Z" fill="#212121"/>
</g>
<defs>
<clipPath id="clip0_26_3379">
<rect width="16" height="16" fill="white"/>
</clipPath>
</defs>
</svg>
