<svg width="22" height="22" viewBox="0 0 22 22" fill="none" xmlns="http://www.w3.org/2000/svg">
<g clip-path="url(#clip0_14_66)">
<path fill-rule="evenodd" clip-rule="evenodd" d="M21.9999 14.1948C21.9332 14.4853 21.8859 14.782 21.7965 15.0653C21.4431 16.1838 20.7363 17.0466 19.8153 17.7481C19.6788 17.8521 19.5348 17.9461 19.3948 18.0456C19.3837 18.0534 19.3771 18.0676 19.3552 18.0958C19.7641 18.9155 20.177 19.7435 20.6138 20.619C20.503 20.5786 20.4388 20.5583 20.3772 20.5319C19.3258 20.0819 18.2726 19.636 17.2254 19.1765C17.0124 19.0831 16.8148 19.0602 16.5871 19.1038C14.5295 19.497 12.5962 19.1523 10.8227 18.0427C9.68685 17.3321 8.84243 16.3584 8.44989 15.0468C8.08192 13.817 8.22743 12.6349 8.8567 11.5258C9.68734 10.0617 10.9876 9.17303 12.5569 8.67172C14.4793 8.05761 16.3968 8.12177 18.2706 8.88207C19.5843 9.41515 20.6613 10.2516 21.3832 11.4981C21.6952 12.0367 21.8855 12.6174 21.9639 13.2351C21.9718 13.2977 21.9877 13.3593 21.9999 13.4214C21.9999 13.6792 21.9999 13.9369 21.9999 14.1948ZM14.0933 12.3859C14.0907 11.8256 13.6251 11.3615 13.0649 11.3609C12.5047 11.3603 12.0382 11.8235 12.0344 12.384C12.0306 12.952 12.5057 13.4255 13.0736 13.4197C13.634 13.4141 14.0959 12.9457 14.0933 12.3859ZM17.1989 11.3609C16.6395 11.3546 16.1682 11.8138 16.1588 12.3742C16.1494 12.9336 16.6059 13.407 17.1668 13.4196C17.7342 13.4323 18.2144 12.9644 18.2177 12.3956C18.2208 11.836 17.7592 11.3671 17.1989 11.3609Z" fill="white"/>
<path fill-rule="evenodd" clip-rule="evenodd" d="M16.3647 6.92455C15.6714 6.92455 15.0336 6.88281 14.4028 6.93194C11.9935 7.11961 9.90569 8.01372 8.32775 9.89304C7.22695 11.2042 6.72967 12.7318 6.92375 14.4558C6.94514 14.6455 6.98672 14.833 7.0309 15.0916C6.47114 14.9529 5.94684 14.8528 5.44392 14.6875C5.14216 14.5883 4.89746 14.5992 4.61127 14.7303C3.85135 15.0782 3.0771 15.3947 2.30828 15.723C2.25108 15.7475 2.19181 15.7669 2.07598 15.8102C2.44734 15.0651 2.79508 14.3674 3.13413 13.687C2.7227 13.3367 2.30004 13.0162 1.9238 12.6484C0.91797 11.665 0.26753 10.4828 0.0625336 9.08109C-0.122546 7.81581 0.105771 6.61085 0.713376 5.4923C1.71544 3.6476 3.30014 2.50503 5.26238 1.8693C7.39636 1.17797 9.53517 1.21785 11.6365 2.0059C13.5178 2.71146 15.01 3.89442 15.9073 5.73501C16.0933 6.11647 16.2148 6.52937 16.3647 6.92455ZM6.53202 5.51909C6.53385 4.95922 6.0714 4.49162 5.51097 4.48668C4.95157 4.48173 4.48124 4.94201 4.47319 5.50233C4.465 6.0701 4.93662 6.54696 5.50493 6.54549C6.06527 6.5441 6.53018 6.07945 6.53202 5.51909ZM11.0056 6.54549C11.566 6.54318 12.0303 6.07786 12.0312 5.51759C12.0321 4.9575 11.5691 4.49071 11.0086 4.48668C10.4406 4.48256 9.96679 4.95741 9.97229 5.52531C9.97775 6.0857 10.4458 6.54783 11.0056 6.54549Z" fill="white"/>
</g>
<defs>
<clipPath id="clip0_14_66">
<rect width="22" height="22" fill="white"/>
</clipPath>
</defs>
</svg>
