<svg width="18" height="18" viewBox="0 0 18 18" fill="none" xmlns="http://www.w3.org/2000/svg">
<g clip-path="url(#clip0_14_71)">
<path fill-rule="evenodd" clip-rule="evenodd" d="M13.8869 18C10.6292 18 7.37147 18 4.11378 18C4.0629 17.9889 4.0125 17.9734 3.961 17.9673C2.99538 17.852 2.14496 17.4776 1.43384 16.8134C0.465086 15.9087 0.00269945 14.7792 0.00153226 13.46C-0.00114559 10.491 0.000124608 7.52207 0.00201285 4.55315C0.00211586 4.36621 0.01475 4.17869 0.0325341 3.9925C0.243231 1.78563 2.12996 0.0278133 4.35668 0.0135996C7.44951 -0.00610725 10.5426 -0.00257089 13.6355 0.0125695C15.5009 0.0217361 17.1719 1.25756 17.7522 3.02828C17.8677 3.38087 17.9191 3.75448 18 4.1184C18 7.37502 18 10.6316 18 13.8882C17.9889 13.9389 17.9729 13.989 17.9673 14.0403C17.7709 15.8319 16.5233 17.3167 14.7778 17.8184C14.4874 17.9018 14.1842 17.9406 13.8869 18ZM16.2025 9.00714C16.2025 7.50779 16.2087 6.00836 16.2008 4.50903C16.1926 2.97435 15.0547 1.81282 13.5303 1.80715C10.5071 1.79599 7.48391 1.79538 4.46081 1.80767C2.95988 1.81378 1.80803 2.96597 1.80216 4.46567C1.79028 7.48777 1.7911 10.51 1.80164 13.5321C1.80686 15.0335 2.95198 16.1908 4.45251 16.1979C7.48144 16.2123 10.5105 16.2042 13.5396 16.2005C13.9969 16.1999 14.4348 16.0931 14.8343 15.8634C15.7495 15.3374 16.1894 14.5262 16.199 13.4877C16.2129 11.9943 16.2026 10.5007 16.2025 9.00714Z" fill="white"/>
<path fill-rule="evenodd" clip-rule="evenodd" d="M13.5 8.99953C13.5019 11.5199 11.5164 13.5039 8.99488 13.5013C6.48158 13.4987 4.50219 11.519 4.50061 9.00612C4.49907 6.48531 6.48402 4.50207 9.00576 4.50489C11.5204 4.50767 13.4981 6.48555 13.5 8.99953ZM11.7023 9.00396C11.7028 7.48307 10.5311 6.30699 9.01009 6.3017C7.4822 6.29634 6.29887 7.47449 6.29818 9.00169C6.29746 10.5218 7.46991 11.6989 8.99021 11.7045C10.5175 11.71 11.7018 10.5308 11.7023 9.00396Z" fill="white"/>
<path fill-rule="evenodd" clip-rule="evenodd" d="M13.5029 5.40482C13.0135 5.40719 12.6089 5.009 12.5998 4.5162C12.5907 4.02264 12.9998 3.60698 13.4972 3.6045C13.9934 3.60207 14.405 4.01501 14.4002 4.5105C14.3955 5.00244 13.9941 5.40248 13.5029 5.40482Z" fill="white"/>
</g>
<defs>
<clipPath id="clip0_14_71">
<rect width="18" height="18" fill="white"/>
</clipPath>
</defs>
</svg>
