<svg width="16" height="16" viewBox="0 0 16 16" fill="none" xmlns="http://www.w3.org/2000/svg">
<g clip-path="url(#clip0_2031_2499)">
<path fill-rule="evenodd" clip-rule="evenodd" d="M8.978 16C7.86472 16 6.77924 16 5.67627 16C5.67627 12.4485 5.67627 8.89827 5.67627 5.33421C6.71829 5.33421 7.76306 5.33421 8.83371 5.33421C8.83371 5.80612 8.83371 6.27744 8.83371 6.77057C8.87778 6.74565 8.89862 6.74108 8.90646 6.72841C9.60275 5.60575 10.6442 5.1088 11.9313 5.07009C12.6666 5.04794 13.3861 5.1373 14.0611 5.45561C14.9348 5.86771 15.4242 6.59046 15.6945 7.48914C15.9101 8.20632 15.9846 8.94512 15.9896 9.68752C16.0035 11.745 15.9981 13.8026 16 15.8602C16 15.8916 15.9955 15.9231 15.9923 15.9669C14.8928 15.9669 13.8025 15.9669 12.6814 15.9669C12.6814 15.8955 12.6814 15.8205 12.6813 15.7456C12.6806 14.0006 12.6861 12.2555 12.6745 10.5105C12.6718 10.1155 12.6406 9.71517 12.5691 9.3271C12.3678 8.23464 11.6574 7.86362 10.64 7.98378C9.71356 8.09319 9.20377 8.63558 9.05957 9.63854C9.00699 10.0044 8.98334 10.3772 8.98157 10.747C8.97351 12.4138 8.978 14.0808 8.978 15.7476C8.978 15.8251 8.978 15.9025 8.978 16Z" fill="white"/>
<path fill-rule="evenodd" clip-rule="evenodd" d="M0.274414 5.33154C1.38162 5.33154 2.47171 5.33154 3.57251 5.33154C3.57251 8.88828 3.57251 12.4332 3.57251 15.9928C2.47433 15.9928 1.37961 15.9928 0.274414 15.9928C0.274414 12.4405 0.274414 8.89502 0.274414 5.33154Z" fill="white"/>
<path fill-rule="evenodd" clip-rule="evenodd" d="M3.83801 1.91524C3.84396 2.97603 2.98383 3.85538 1.93439 3.86148C0.87912 3.86762 0.000366367 2.98674 1.17032e-07 1.92243C-0.000366133 0.875429 0.858948 0.00953916 1.90781 7.85356e-05C2.96509 -0.00945803 3.83206 0.850741 3.83801 1.91524Z" fill="white"/>
</g>
<defs>
<clipPath id="clip0_2031_2499">
<rect width="16" height="16" fill="white"/>
</clipPath>
</defs>
</svg>
